<?xml version="1.0" standalone="no"?>
<!DOCTYPE svg PUBLIC "-//W3C//DTD SVG 1.1//EN" "http://www.w3.org/Graphics/SVG/1.1/DTD/svg11.dtd" >
<svg xmlns="http://www.w3.org/2000/svg">
<metadata>Generated by IcoMoon</metadata>
<defs>
<font id="icomoon" horiz-adv-x="1024">
<font-face units-per-em="1024" ascent="960" descent="-64" />
<missing-glyph horiz-adv-x="1024" />
<glyph unicode="&#x20;" horiz-adv-x="512" d="" />
<glyph unicode="&#xe900;" glyph-name="dcube" d="M512 437.333c-18.773 0-37.547 4.693-54.613 13.653l-277.76 149.761c-25.173 13.653-40.96 40.533-40.96 70.4s15.787 56.747 40.96 70.4l277.76 149.76c34.133 18.347 75.093 18.347 108.8 0l277.76-149.76c25.173-13.653 40.96-40.533 40.96-70.4s-15.787-56.747-40.96-70.4l-277.76-149.761c-16.64-9.387-35.413-13.653-54.187-13.653zM512 841.388c-8.107 0-16.64-2.133-24.32-6.4l-277.333-149.333c-7.253-3.84-7.68-11.947-7.68-14.507s0.427-10.667 7.68-14.080l277.76-149.761c15.36-8.107 32.853-8.107 48.213 0l277.76 149.761c6.827 3.84 7.68 11.947 7.68 14.080 0 2.56-0.427 10.667-7.68 14.080l-277.76 149.76c-7.68 4.267-16.213 6.4-24.32 6.4zM417.28-9.387c-11.947 0-24.32 2.987-35.413 8.533l-258.56 128.853c-43.093 21.76-69.973 65.28-69.973 113.493v244.053c0 27.733 14.080 52.906 37.547 67.413 23.893 14.507 52.48 15.787 77.227 3.413l258.56-128.853c43.093-21.76 69.973-64.853 69.973-113.493v-244.053c0-27.733-14.080-52.907-37.547-67.413-12.8-8.107-27.307-11.947-41.813-11.947zM132.693 500.907c-3.413 0-6.4-1.28-8.107-2.133-2.56-1.707-7.253-5.547-7.253-13.227v-244.053c0-23.893 13.227-45.653 34.56-56.32l258.133-129.28c6.827-3.413 12.373-0.853 14.933 0.427 2.56 1.707 7.253 5.547 7.253 13.227v244.053c0 23.893-13.227 45.653-34.56 56.32l-258.133 129.28c-2.56 1.28-4.693 1.707-6.827 1.707zM606.72-9.387c-14.507 0-29.013 3.84-41.813 11.947-23.467 14.507-37.547 39.68-37.547 67.413v244.053c0 48.213 26.88 91.733 69.973 113.493l258.133 129.28c24.747 12.373 53.76 11.093 77.227-3.413s37.547-39.68 37.547-67.413v-244.053c0-48.213-26.88-91.733-69.973-113.493l-258.133-129.28c-11.093-5.973-23.467-8.533-35.413-8.533zM891.307 500.907c-2.133 0-4.267-0.427-6.827-1.707l-258.133-129.28c-21.333-10.667-34.56-32-34.56-56.32v-244.053c0-7.68 4.693-11.52 7.253-13.227s8.107-3.84 14.933-0.427l258.133 129.28c21.333 10.667 34.56 32.427 34.56 56.32v244.053c0 7.68-4.693 11.52-7.253 13.227-1.707 0.853-4.693 2.133-8.107 2.133z" />
<glyph unicode="&#xe901;" glyph-name="d-cube-scan" d="M938.709 544c-17.493 0-32 14.507-32 32v85.333c0 110.080-71.253 181.333-181.333 181.333h-426.668c-110.080 0-181.333-71.253-181.333-181.333v-85.333c0-17.493-14.507-32-32-32s-32 14.507-32 32v85.333c0 146.773 98.56 245.333 245.333 245.333h426.668c146.773 0 245.333-98.56 245.333-245.333v-85.333c0-17.493-14.507-32-32-32zM725.376-10.667h-426.668c-146.773 0-245.333 98.56-245.333 245.333v85.333c0 17.493 14.507 32 32 32s32-14.507 32-32v-85.333c0-110.080 71.253-181.333 181.333-181.333h426.668c110.080 0 181.333 71.253 181.333 181.333v85.333c0 17.493 14.507 32 32 32s32-14.507 32-32v-85.333c0-146.773-98.56-245.333-245.333-245.333zM512.047 401.92c-5.547 0-11.093 1.284-16.213 4.271l-226.134 130.559c-15.36 8.96-20.48 28.585-11.52 43.945s28.587 20.481 43.52 11.521l209.92-121.599 208.64 120.745c15.36 8.96 34.987 3.415 43.52-11.518 8.96-15.36 3.413-34.988-11.52-43.948l-224.427-129.705c-4.693-2.56-10.24-4.271-15.787-4.271zM512.043 169.813c-17.493 0-32 14.507-32 32v232.107c0 17.493 14.507 32 32 32s32-14.507 32-32v-232.107c0-17.493-14.507-32-32-32zM512.051 159.996c-24.747 0-49.067 5.551-68.693 16.218l-136.533 75.942c-40.96 22.613-72.533 76.8-72.533 123.733v144.644c0 46.505 32 100.69 72.533 123.73l136.533 75.948c39.253 21.76 98.133 21.76 137.387 0l136.533-75.948c40.96-22.613 72.533-76.798 72.533-123.73v-144.644c0-46.507-32-100.693-72.533-123.733l-136.533-75.942c-19.627-10.667-43.947-16.218-68.693-16.218zM474.505 663.891l-136.533-75.945c-20.907-11.52-39.68-43.948-39.68-67.412v-144.644c0-23.893 18.773-55.893 39.68-67.413l136.533-75.942c19.627-10.667 55.467-10.667 75.093 0l136.533 75.942c20.907 11.52 39.68 43.947 39.68 67.413v144.644c0 23.892-18.773 55.892-39.68 67.412l-136.533 75.945c-19.627 10.667-55.467 10.667-75.093 0z" />
<glyph unicode="&#xe902;" glyph-name="d-rotate" d="M512.004 401.924c-5.547 0-11.093 1.28-16.213 4.267l-226.132 130.558c-15.36 8.96-20.481 28.586-11.521 43.52 8.96 15.36 28.16 20.48 43.946 11.52l209.92-121.598 208.64 120.745c15.36 8.96 34.987 3.414 43.947-11.52 8.96-15.36 3.413-34.987-11.52-43.52l-224.427-129.705c-5.547-2.56-11.093-4.267-16.64-4.267zM512 169.813c-17.493 0-32 14.507-32 32v232.107c0 17.493 14.507 32 32 32s32-14.507 32-32v-232.107c0-17.493-14.507-32-32-32zM512.009 160c-24.747 0-49.062 5.547-68.689 16.213l-136.535 75.947c-40.96 22.613-72.534 76.8-72.534 123.733v144.64c0 46.507 32.001 101.12 72.534 123.734l136.535 75.947c39.253 21.76 98.129 21.76 137.382 0l136.533-75.947c40.96-22.613 72.538-76.8 72.538-123.734v-144.64c0-46.507-32.004-101.12-72.538-123.733l-136.533-75.947c-19.627-10.667-43.947-16.213-68.693-16.213zM512.009 672.001c-14.080 0-27.733-2.56-37.547-8.107l-136.531-75.947c-20.907-11.52-39.681-43.947-39.681-67.414v-144.64c0-23.893 18.775-55.893 39.681-67.413l136.531-75.947c19.627-11.093 55.467-11.093 75.093 0l136.533 75.947c20.907 11.52 39.684 43.947 39.684 67.413v144.64c0 23.894-18.778 55.894-39.684 67.414l-136.533 75.947c-9.813 5.547-23.467 8.107-37.547 8.107zM640.009-10.667c-11.52 0-22.187 6.4-27.733 16.213-5.547 10.24-5.547 22.187 0.427 32.427l44.8 74.667c8.96 14.933 28.587 20.053 43.947 11.093s20.053-28.587 11.093-43.947l-11.52-19.2c117.76 27.733 206.080 133.547 206.080 259.84 0 17.493 14.507 32 32 32s32-14.507 32-32c-0.427-182.613-148.907-331.093-331.093-331.093zM85.333 544c-17.493 0-32 14.507-32 32 0 182.187 148.48 330.667 330.667 330.667 11.52 0 22.186-6.4 27.733-16.213 5.547-10.24 5.548-22.187-0.426-32.427l-44.8-74.667c-8.96-14.933-28.587-20.053-43.947-11.093s-20.054 28.587-11.094 43.947l11.521 19.2c-117.76-27.733-206.081-133.547-206.081-259.84 0.427-17.067-14.080-31.573-31.573-31.573z" />
<glyph unicode="&#xe903;" glyph-name="d-square" d="M640-10.667h-256c-231.68 0-330.667 98.987-330.667 330.667v256c0 231.68 98.987 330.667 330.667 330.667h256c231.68 0 330.667-98.987 330.667-330.667v-256c0-231.68-98.987-330.667-330.667-330.667zM384 842.667c-196.693 0-266.667-69.973-266.667-266.667v-256c0-196.693 69.973-266.667 266.667-266.667h256c196.693 0 266.667 69.973 266.667 266.667v256c0 196.693-69.973 266.667-266.667 266.667h-256zM512.004 401.924c-5.547 0-11.093 1.28-16.213 4.267l-226.132 130.558c-15.36 8.96-20.481 28.586-11.521 43.52 8.96 15.36 28.588 20.48 43.521 11.52l209.919-121.598 208.64 120.745c15.36 8.96 34.987 3.414 43.52-11.52s3.413-34.987-11.52-43.52l-224.427-129.705c-4.693-2.56-10.24-4.267-15.787-4.267zM512 169.813c-17.493 0-32 14.507-32 32v232.107c0 17.493 14.507 32 32 32s32-14.507 32-32v-232.107c0-17.493-14.507-32-32-32zM512.009 160c-24.747 0-49.062 5.547-68.689 16.213l-136.535 75.947c-40.96 22.613-72.534 76.8-72.534 123.733v144.64c0 46.507 32.001 100.694 72.534 123.734l136.535 75.947c39.253 21.76 98.129 21.76 137.382 0l136.533-75.947c40.96-22.613 72.538-76.8 72.538-123.734v-144.64c0-46.507-32.004-100.693-72.538-123.733l-136.533-75.947c-19.627-11.093-43.947-16.213-68.693-16.213zM512.009 672.001c-14.080 0-27.733-2.56-37.547-8.107l-136.531-75.947c-20.907-11.52-39.681-43.947-39.681-67.414v-144.64c0-23.893 18.775-55.893 39.681-67.413l136.531-75.947c19.627-11.093 55.467-11.093 75.093 0l136.533 75.947c20.907 11.52 39.684 43.947 39.684 67.413v144.64c0 23.894-18.778 55.894-39.684 67.414l-136.533 75.947c-9.813 5.547-23.467 8.107-37.547 8.107z" />
<glyph unicode="&#xe904;" glyph-name="square" d="M399.787-10.667h-202.667c-98.133 0-143.787 45.653-143.787 143.787v202.667c0 98.56 45.653 144.213 143.787 144.213h101.547c17.493 0 32-14.507 32-32v-101.12c0-62.293 17.92-80.213 79.787-80.213h101.547c17.493 0 32-14.507 32-32v-101.547c0-98.133-45.653-143.787-144.213-143.787zM197.12 416c-61.867 0-79.787-17.92-79.787-80.213v-202.667c0-61.867 17.92-79.787 79.787-79.787h202.667c62.293 0 80.213 17.92 80.213 79.787v69.547h-69.547c-98.133 0-143.787 45.653-143.787 144.213v69.12h-69.547zM613.12 202.667h-202.667c-98.133 0-143.787 45.653-143.787 144.213v202.667c0 98.133 45.653 143.787 143.787 143.787h101.547c17.493 0 32-14.507 32-32v-101.12c0-62.293 17.92-80.213 79.787-80.213h101.547c17.493 0 32-14.507 32-32v-101.12c0-98.56-45.653-144.213-144.213-144.213zM410.453 629.333c-61.867 0-79.787-17.92-79.787-79.787v-202.667c0-62.293 17.92-80.213 79.787-80.213h202.667c62.293 0 80.213 17.92 80.213 80.213v69.12h-69.547c-98.133 0-143.787 45.653-143.787 144.213v69.12h-69.547zM826.453 416h-202.667c-98.133 0-143.787 45.653-143.787 144.213v202.667c0 98.133 45.653 143.787 143.787 143.787h202.667c98.56 0 144.213-45.653 144.213-143.787v-202.667c0-98.56-45.653-144.213-144.213-144.213zM623.787 842.667c-61.867 0-79.787-17.92-79.787-79.787v-202.667c0-62.293 17.92-80.213 79.787-80.213h202.667c62.293 0 80.213 17.92 80.213 80.213v202.667c0 61.867-17.92 79.787-80.213 79.787h-202.667z" />
<glyph unicode="&#xe905;" glyph-name="support" d="M512-10.667c-29.867 0-60.16 11.52-82.773 34.133l-72.96 72.107c-18.347 17.92-42.241 27.733-67.841 27.733h-32.426c-88.32 0-160 71.253-160 158.72v465.494c0 87.467 71.68 158.719 160 158.719h512c88.32 0 160-71.252 160-158.719v-465.494c0-87.467-71.68-158.72-160-158.72h-32.427c-25.6 0-49.92-9.813-67.84-27.733l-72.96-72.107c-22.613-22.613-52.907-34.133-82.773-34.133zM256 842.667c-52.907 0-96-42.665-96-94.719v-465.495c0-52.48 43.093-94.72 96-94.72h32.426c42.667 0 82.774-16.636 113.067-46.502l72.96-72.111c20.907-20.48 54.613-20.48 75.52 0l72.96 72.111c30.293 29.867 70.4 46.502 113.067 46.502h32c52.907 0 96 42.667 96 94.72v465.495c0 52.48-43.093 94.719-96 94.719h-512zM442.889 340.907h-114.345c-18.773 0-36.267 8.964-47.36 24.324-10.667 14.507-13.227 32.422-8.107 49.489 14.933 45.653 51.627 70.4 84.053 92.587 34.133 23.040 53.333 37.546 53.333 62.292 0 22.187-17.92 40.109-40.107 40.109s-40.106-17.923-40.106-40.109c0-17.493-14.507-32-32-32s-32 14.507-32 32c0 57.173 46.506 104.109 104.106 104.109s104.106-46.509 104.106-104.109c0-60.159-45.227-90.879-81.492-115.626-22.613-15.36-43.948-29.867-54.614-49.067h104.106c17.493 0 32-14.507 32-32s-14.080-32-31.573-32zM684.369 340.902c-17.493 0-32 14.507-32 32v29.444h-83.627c0 0 0 0-0.427 0-20.907 0-40.107 11.089-50.773 29.009-10.667 18.347-10.667 40.96 0 58.88 29.013 49.921 62.72 106.67 93.44 156.163 13.653 21.76 39.68 31.571 64 24.745 24.32-7.253 41.387-29.442 40.96-55.042v-150.182h9.387c17.493 0 32-14.507 32-32s-14.507-32-32-32h-8.96v-29.444c0-17.493-14.080-31.573-32-31.573zM652.369 591.357c-25.173-40.96-51.2-84.904-74.667-125.010h74.667v125.010z" />
<glyph unicode="&#xe906;" glyph-name="aave-aave" d="M682.667 245.333c-12.373 0-23.893 7.253-29.44 19.2l-141.227 317.865-141.225-318.291c-7.253-16.213-26.453-23.467-42.24-16.213-16.213 7.253-23.467 26.027-16.214 42.24l170.665 383.998c10.24 23.040 48.213 23.040 58.453 0l170.667-383.998c7.253-16.213 0-34.987-16.213-42.24-4.267-1.707-8.96-2.56-13.227-2.56zM512 416h-170.667c-17.493 0-32 14.507-32 32s14.507 32 32 32h170.667c17.493 0 32-14.507 32-32s-14.507-32-32-32zM512-10.667c-253.013 0-458.667 205.653-458.667 458.667s205.653 458.667 458.667 458.667c253.013 0 458.667-205.653 458.667-458.667s-205.653-458.667-458.667-458.667zM512 842.667c-217.6 0-394.667-177.067-394.667-394.667s177.067-394.667 394.667-394.667c217.6 0 394.667 177.067 394.667 394.667s-177.067 394.667-394.667 394.667z" />
<glyph unicode="&#xe907;" glyph-name="menu" d="M839.68 512h-655.36c-28.262 0-30.72-22.886-30.72-51.2s2.458-51.2 30.72-51.2h655.36c28.262 0 30.72 22.886 30.72 51.2s-2.458 51.2-30.72 51.2zM839.68 307.2h-655.36c-28.262 0-30.72-22.886-30.72-51.2s2.458-51.2 30.72-51.2h655.36c28.262 0 30.72 22.886 30.72 51.2s-2.458 51.2-30.72 51.2zM184.32 614.4h655.36c28.262 0 30.72 22.886 30.72 51.2s-2.458 51.2-30.72 51.2h-655.36c-28.262 0-30.72-22.886-30.72-51.2s2.458-51.2 30.72-51.2z" />
<glyph unicode="&#xe908;" glyph-name="chevron-thin-up" d="M132.198 261.581c-13.926-13.722-36.301-13.722-50.125 0s-13.875 35.891 0 49.613l404.89 400.896c13.824 13.722 36.198 13.722 50.125 0l404.89-400.896c13.824-13.722 13.824-35.891 0-49.613-13.875-13.722-36.301-13.722-50.074 0l-379.904 365.619-379.802-365.619z" />
<glyph unicode="&#xe909;" glyph-name="chevron-thin-down" d="M891.802 660.019c13.926 13.722 36.301 13.722 50.125 0s13.875-35.891 0-49.613l-404.89-400.896c-13.824-13.722-36.198-13.722-50.125 0l-404.89 400.896c-13.824 13.722-13.824 35.891 0 49.613 13.875 13.722 36.301 13.722 50.125 0l379.853-365.619 379.802 365.619z" />
<glyph unicode="&#xe90a;" glyph-name="chevron-thin-right" d="M678.4 460.8l-365.619 379.904c-13.722 13.824-13.722 36.198 0 50.125 13.722 13.824 35.891 13.824 49.613 0l400.896-404.89c13.722-13.875 13.722-36.301 0-50.125l-400.896-404.89c-13.722-13.875-35.891-13.824-49.613 0-13.722 13.773-13.722 36.198 0 50.125l365.619 379.75z" />
<glyph unicode="&#xe90b;" glyph-name="chevron-thin-left" d="M711.219 80.998c13.722-13.926 13.722-36.301 0-50.125s-35.891-13.875-49.613 0l-400.896 404.89c-13.722 13.824-13.722 36.198 0 50.125l400.896 404.89c13.722 13.824 35.891 13.824 49.613 0 13.722-13.875 13.722-36.301 0-50.125l-365.619-379.853 365.619-379.802z" />
<glyph unicode="&#xe90c;" glyph-name="activity" d="M640-10.667h-256c-231.68 0-330.667 98.987-330.667 330.667v256c0 231.68 98.987 330.667 330.667 330.667h256c231.68 0 330.667-98.987 330.667-330.667v-256c0-231.68-98.987-330.667-330.667-330.667zM384 842.667c-196.693 0-266.667-69.973-266.667-266.667v-256c0-196.693 69.973-266.667 266.667-266.667h256c196.693 0 266.667 69.973 266.667 266.667v256c0 196.693-69.973 266.667-266.667 266.667h-256zM312.746 309.76c-6.827 0-13.653 2.133-19.627 6.827-14.080 10.667-16.64 30.72-5.973 44.8l101.547 131.84c12.373 15.787 29.867 26.027 49.92 28.587 19.627 2.56 39.68-2.987 55.467-15.36l78.080-61.44c2.987-2.56 5.973-2.56 8.107-2.133 1.707 0 4.693 0.853 7.253 4.267l98.56 127.146c10.667 14.080 31.147 16.64 44.8 5.547 14.080-10.667 16.64-30.72 5.547-44.8l-98.56-127.146c-12.373-15.787-29.867-26.027-49.92-28.16-20.053-2.56-39.68 2.987-55.467 15.36l-78.080 61.44c-2.987 2.56-6.4 2.56-8.107 2.133-1.707 0-4.693-0.853-7.253-4.267l-101.547-131.84c-5.547-8.533-14.933-12.8-24.747-12.8z" />
<glyph unicode="&#xe90d;" glyph-name="add" d="M768 416h-512c-17.493 0-32 14.507-32 32s14.507 32 32 32h512c17.493 0 32-14.507 32-32s-14.507-32-32-32zM512 160c-17.493 0-32 14.507-32 32v512c0 17.493 14.507 32 32 32s32-14.507 32-32v-512c0-17.493-14.507-32-32-32z" />
<glyph unicode="&#xe90e;" glyph-name="add-circle" d="M512-10.667c-253.013 0-458.667 205.653-458.667 458.667s205.653 458.667 458.667 458.667c253.013 0 458.667-205.653 458.667-458.667s-205.653-458.667-458.667-458.667zM512 842.667c-217.6 0-394.667-177.067-394.667-394.667s177.067-394.667 394.667-394.667c217.6 0 394.667 177.067 394.667 394.667s-177.067 394.667-394.667 394.667zM682.667 416h-341.333c-17.493 0-32 14.507-32 32s14.507 32 32 32h341.333c17.493 0 32-14.507 32-32s-14.507-32-32-32zM512 245.333c-17.493 0-32 14.507-32 32v341.333c0 17.493 14.507 32 32 32s32-14.507 32-32v-341.333c0-17.493-14.507-32-32-32z" />
<glyph unicode="&#xe90f;" glyph-name="additem" d="M341.333 245.333h-109.653c-114.773 0-178.347 63.147-178.347 178.347v304.64c0 114.773 63.147 178.347 178.347 178.347h194.987c114.773 0 178.347-63.147 178.347-178.347 0-17.493-14.507-32-32-32s-32 14.507-32 32c0 80.213-34.133 114.347-114.347 114.347h-194.987c-80.213 0-114.347-34.133-114.347-114.347v-304.64c0-80.213 34.133-114.347 114.347-114.347h109.653c17.493 0 32-14.507 32-32s-14.507-32-32-32zM792.316-10.667h-194.987c-114.773 0-178.345 63.147-178.345 178.347v304.64c0 114.773 63.145 178.347 178.345 178.347h194.987c114.773 0 178.347-63.147 178.347-178.347v-304.64c0-115.2-63.147-178.347-178.347-178.347zM597.329 586.667c-80.213 0-114.347-34.133-114.347-114.347v-304.64c0-80.213 34.133-114.347 114.347-114.347h194.987c80.213 0 114.347 34.133 114.347 114.347v304.64c0 80.213-34.133 114.347-114.347 114.347h-194.987zM773.547 288h-138.667c-17.493 0-32 14.507-32 32s14.507 32 32 32h138.667c17.493 0 32-14.507 32-32s-14.507-32-32-32zM704 218.453c-17.493 0-32 14.507-32 32v138.667c0 17.493 14.507 32 32 32s32-14.507 32-32v-138.667c0-17.493-14.507-32-32-32z" />
<glyph unicode="&#xe910;" glyph-name="add-square" d="M682.667 416h-341.333c-17.493 0-32 14.507-32 32s14.507 32 32 32h341.333c17.493 0 32-14.507 32-32s-14.507-32-32-32zM512 245.333c-17.493 0-32 14.507-32 32v341.333c0 17.493 14.507 32 32 32s32-14.507 32-32v-341.333c0-17.493-14.507-32-32-32zM640-10.667h-256c-231.68 0-330.667 98.987-330.667 330.667v256c0 231.68 98.987 330.667 330.667 330.667h256c231.68 0 330.667-98.987 330.667-330.667v-256c0-231.68-98.987-330.667-330.667-330.667zM384 842.667c-196.693 0-266.667-69.973-266.667-266.667v-256c0-196.693 69.973-266.667 266.667-266.667h256c196.693 0 266.667 69.973 266.667 266.667v256c0 196.693-69.973 266.667-266.667 266.667h-256z" />
<glyph unicode="&#xe911;" glyph-name="airdrop" d="M511.996 373.76c-33.28 0-64.853 12.8-89.171 36.693-31.147 31.147-43.52 75.947-33.28 119.893 10.667 44.8 46.505 80.64 91.305 91.307 43.52 10.667 88.32-1.708 119.893-33.281s43.52-75.946 33.28-119.892c-10.667-44.8-46.507-80.64-91.307-91.307-10.24-2.133-20.48-3.413-30.72-3.413zM511.996 561.492c-5.12 0-10.667-0.852-15.787-2.132-21.333-5.12-38.822-22.612-43.942-43.946-5.547-22.187 0.422-43.947 16.209-59.307 15.787-15.787 37.12-21.333 59.733-16.213 21.333 5.12 38.827 22.613 43.947 43.947 5.547 22.187-0.427 43.947-16.213 59.306-11.947 11.947-27.307 18.346-43.947 18.346zM256.852 193.28c-7.68 0-15.787 2.987-21.76 8.533-82.773 76.8-130.133 185.173-130.133 297.813 0 224.428 182.613 407.040 407.042 407.040 224.427 0 407.036-182.612 407.036-407.040 0-113.493-45.649-218.453-128.422-296.533-12.8-11.947-33.28-11.52-45.227 1.28s-11.52 33.28 1.28 45.227c69.973 65.707 108.369 154.027 108.369 249.6 0 189.014-154.022 343.040-343.036 343.040s-343.042-154.026-343.042-343.040c0-96.427 38.826-185.173 109.653-250.88 12.8-11.947 13.654-32.427 1.707-45.227-6.4-6.4-14.933-9.813-23.467-9.813zM682.667 307.2c-7.68 0-15.787 2.987-21.76 8.533-12.8 11.947-13.653 32.427-1.28 45.227 35.413 37.547 55.040 87.040 55.040 138.24 0 111.785-90.88 202.237-202.24 202.237s-202.239-90.88-202.239-202.237c0-51.627 19.626-100.693 55.040-138.24 11.947-12.8 11.52-33.28-1.28-45.227s-33.28-11.524-45.226 1.276c-46.507 49.493-72.533 114.351-72.533 182.191 0 146.771 119.466 266.237 266.239 266.237s266.24-119.466 266.24-266.237c0-67.84-25.6-132.698-72.533-182.191-6.4-6.4-14.933-9.809-23.467-9.809zM573.449-10.667h-122.453c-48.641 0-91.735 27.307-112.641 70.827s-15.36 94.293 14.933 132.267l61.44 76.373c23.895 29.867 59.308 46.933 97.708 46.933s73.813-17.067 97.707-46.933l61.44-76.373c30.293-37.973 36.267-88.747 14.933-132.267-21.76-43.52-64.853-70.827-113.067-70.827zM464.222 229.12l-61.441-76.373c-14.933-18.773-17.92-43.093-7.253-64.427 10.24-21.76 31.148-34.56 55.041-34.56h122.453c23.893 0 44.8 12.8 55.040 34.56s7.68 45.653-7.253 64.427l-61.44 76.373c-23.040 29.013-71.68 29.013-95.147 0z" />
<glyph unicode="&#xe912;" glyph-name="airplane" d="M366.090-2.138c-9.387 0-19.2 1.707-28.16 5.547-20.053 8.533-35.413 25.173-42.24 46.080l-18.773 56.32c-8.533 25.6-0.853 57.6 17.92 76.8l96.853 97.28c1.28 1.28 2.987 5.973 2.987 8.107v105.387l-194.56-84.053c-26.027-11.093-52.48-9.813-72.533 3.413s-32 37.12-32 64.853v55.040c0 41.813 29.867 86.613 67.84 101.548l230.827 99.84v121.173c0 51.627 36.265 110.933 82.345 134.827 22.187 11.093 47.787 11.093 69.547 0 46.507-23.893 82.773-82.773 82.773-134.4v-121.173l232.107-99.84c37.973-16.215 66.987-59.735 66.987-101.975v-55.040c0-28.16-11.52-51.627-32-64.853s-46.507-14.507-72.533-3.84l-194.56 84.053v-105.387c0-1.707 1.707-5.973 2.987-7.253l97.28-97.707c18.773-18.773 26.453-51.627 17.92-76.8l-18.773-56.32c-7.253-20.907-22.613-37.547-43.093-45.653-20.053-8.107-42.24-7.253-61.44 2.133-2.133 1.28-4.267 2.56-6.4 4.267l-99.413 83.627c-3.413 2.987-10.24 2.56-13.227 0l-99.412-83.627c-1.707-1.707-3.84-2.987-5.973-3.84-10.24-5.973-21.76-8.533-33.28-8.533zM407.904 463.356c9.813 0 19.198-2.56 27.305-8.107 14.933-9.813 23.467-26.453 23.467-46.080v-121.6c0-18.347-8.96-40.107-21.76-52.907l-96.852-97.28c-1.707-2.133-3.413-8.533-2.56-11.093l18.773-56.747c1.28-4.267 4.267-5.973 5.973-6.827 1.28-0.427 3.413-1.28 5.973-0.427l95.572 80.64c26.88 23.040 69.12 23.040 96 0l95.147-80.213c2.987-0.427 5.12 0 6.4 0.427 1.707 0.853 5.12 2.56 6.4 6.827l18.773 56.32c0.853 2.987-0.853 9.387-2.56 11.093l-96.853 97.28c-12.8 11.947-22.187 34.133-22.187 52.907v121.6c0 19.2 8.107 35.84 22.613 45.653s33.28 11.093 51.2 3.413l209.92-90.453c6.4-2.56 10.667-2.56 11.947-1.707s2.987 4.693 2.987 11.52v55.040c0 16.213-13.653 37.12-28.16 43.093l-238.080 102.828c-18.773 8.107-32 28.587-32 49.067v128c0 28.16-22.187 64.427-47.787 77.227-3.413 1.707-7.68 1.707-11.52 0-24.747-12.8-47.36-49.92-47.36-77.653v-128c0-20.053-13.227-40.96-32-49.067l-238.079-102.828c-14.933-5.973-28.587-26.88-28.587-42.667v-55.040c0-6.827 1.707-10.667 2.987-11.52s5.547-0.853 11.947 1.707l209.493 90.453c7.68 3.413 15.787 5.12 23.467 5.12z" />
<glyph unicode="&#xe913;" glyph-name="airplane-square" d="M616.96 113.92c-9.813 0-19.627 2.133-28.587 6.827-2.133 1.28-4.267 2.56-5.973 4.267l-71.253 60.587-69.973-60.587c-2.133-1.707-4.267-2.987-6.4-4.267-16.639-8.107-35.412-8.96-52.052-1.707-17.067 7.253-29.867 21.333-35.84 38.827l-13.653 40.96c-7.253 21.333-0.853 48.213 14.933 64.427l71.253 69.973-0.427 61.867-128.427-55.040c-21.333-8.96-43.52-8.107-60.587 3.413-16.64 10.667-26.453 30.72-26.453 53.76v39.68c0 33.28 23.040 68.693 53.76 81.92l161.707 69.547v81.493c0 41.813 27.732 87.040 64.852 104.96 18.347 8.96 39.253 8.96 57.6 0 37.12-19.2 64.853-64.427 64.853-104.96v-81.493l161.707-69.547c30.72-12.8 53.76-48.213 53.76-81.92v-39.68c0-23.040-9.813-43.093-27.307-54.187s-39.253-12.373-60.587-3.413l-128 55.040v-62.72l69.547-69.547c15.787-15.787 22.187-43.093 14.933-64.427l-13.653-40.533c-5.973-17.493-18.773-31.573-35.84-38.4-7.68-3.413-15.787-5.12-23.893-5.12zM512 248.747c14.507 0 28.587-4.693 40.107-13.653l66.133-56.32 11.52 39.68-69.547 69.12c-11.093 10.667-18.347 28.587-18.347 44.373v78.933c0 19.2 8.107 35.84 22.613 45.653s33.28 11.093 51.2 3.413l141.653-60.587 0.427 37.547c0 8.107-7.68 20.053-14.933 23.040l-168.533 72.533c-18.347 7.68-32 28.16-32 49.067v88.32c0 16.64-14.507 40.107-29.44 47.787-15.36-7.68-29.867-30.72-29.867-47.787v-88.32c0-20.053-13.227-40.96-32-49.067l-168.106-72.533c-7.253-2.987-15.36-15.36-15.36-23.040v-37.547l141.227 60.16c17.493 7.68 35.839 6.827 50.772-2.987s23.467-26.453 23.467-46.080v-78.933c0-15.36-7.253-33.28-18.347-44.373l-71.679-70.4 13.653-37.547 64.426 54.613c11.947 9.813 26.453 14.933 40.96 14.933zM599.467 591.36l0.427-0.426c0 0.427-0.427 0.426-0.427 0.426zM640-10.667h-256c-231.68 0-330.667 98.987-330.667 330.667v256c0 231.68 98.987 330.667 330.667 330.667h256c231.68 0 330.667-98.987 330.667-330.667v-256c0-231.68-98.987-330.667-330.667-330.667zM384 842.667c-196.693 0-266.667-69.973-266.667-266.667v-256c0-196.693 69.973-266.667 266.667-266.667h256c196.693 0 266.667 69.973 266.667 266.667v256c0 196.693-69.973 266.667-266.667 266.667h-256z" />
<glyph unicode="&#xe914;" glyph-name="airpod" d="M645.12-10.667h-266.24c-171.947 0-274.773 33.707-293.547 206.507-3.413 24.747-5.12 54.187-5.12 92.16v320c0 36.693 1.707 66.987 5.12 92.587 19.627 173.227 118.187 206.080 293.974 206.080h266.666c175.787 0 274.773-32.853 293.547-206.933 4.267-28.587 5.12-61.013 5.12-91.733v-320c0-37.12-1.707-66.56-5.12-93.013-19.627-172.8-118.613-205.653-294.4-205.653zM378.88 842.667c-181.333 0-218.027-39.253-230.4-149.76-3.413-23.467-4.693-51.2-4.693-84.907v-320c0-34.987 1.707-61.44 4.693-84.053 12.373-111.36 48.64-150.613 230.4-150.613h266.24c181.333 0 218.027 39.253 230.4 149.333 2.987 23.467 4.693 51.2 4.693 85.333v320c0 28.16-0.427 58.027-4.267 83.627-12.373 111.787-48.64 151.040-230.4 151.040h-266.667zM905.813 547.412h-174.933c-17.493 0-32 14.507-32 32s14.507 32 32 32h174.933c17.493 0 32-14.507 32-32s-14.507-32-32-32zM293.121 547.412h-174.933c-17.493 0-32 14.507-32 32s14.507 32 32 32h174.933c17.493 0 32-14.507 32-32s-14.507-32-32-32zM643.413 459.947h-262.827c-32 0-62.72 12.8-84.907 35.84-22.187 21.333-34.56 51.627-34.56 83.627 0 65.707 53.76 119.467 119.467 119.467h262.4c32 0 62.72-13.227 84.907-35.84 22.187-21.76 34.987-51.627 34.987-83.627 0-65.707-53.76-119.467-119.467-119.467zM380.587 634.88c-30.72 0-55.467-24.747-55.467-55.467 0-14.933 5.547-28.586 15.787-38.4 10.667-11.094 24.747-17.067 39.68-17.067h262.827c30.72 0 55.467 24.747 55.467 55.467 0 14.507-5.973 28.16-16.213 38.4-10.667 11.093-24.747 17.067-39.68 17.067h-262.4z" />
<glyph unicode="&#xe915;" glyph-name="airpods" d="M367.37 117.333c-62.293 0-112.639 50.347-112.639 112.64v290.56h-8.534c-106.667 0-193.28 86.612-193.28 193.279s86.613 193.281 193.28 193.281h80.641c84.48 0 152.745-68.694 152.745-152.748v-523.946c0.427-62.72-49.92-113.067-112.212-113.067zM246.624 842.667c-71.253 0-129.28-58.028-129.28-129.281s58.027-129.279 129.28-129.279h40.534c17.493 0 32-14.507 32-32v-322.56c0-26.88 21.759-48.64 48.639-48.64s48.64 21.76 48.64 48.64v523.945c0 49.067-39.68 88.748-88.747 88.748h-81.067v0.427zM246.607 641.279c-39.68 0-72.107 32.425-72.107 72.531s32.427 72.107 72.107 72.107c17.493 0 32-14.507 32-32s-14.507-32-32-32c-4.693 0-8.107-3.84-8.107-8.107s3.84-8.531 8.107-8.531c17.493 0 32-14.507 32-32s-14.507-32-32-32zM656.64 117.333c-62.293 0-112.64 50.347-112.64 112.64v523.946c0 84.48 68.693 152.748 152.747 152.748h80.64c106.667 0 193.28-86.615 193.28-193.281s-86.613-193.279-193.28-193.279h-8.533v-290.56c0.427-61.867-50.347-112.213-112.213-112.213zM696.747 842.667c-49.067 0-88.747-39.681-88.747-88.748v-523.946c0-26.88 21.76-48.64 48.64-48.64s48.64 21.76 48.64 48.64v322.56c0 17.493 14.507 32 32 32h40.533c71.253 0 129.28 58.025 129.28 129.279s-58.027 129.281-129.28 129.281h-81.067v-0.427zM777.374 641.279c-17.493 0-32 14.507-32 32s14.507 32 32 32c4.693 0 8.107 3.838 8.107 8.531s-3.84 8.107-8.107 8.107c-17.493 0-32 14.507-32 32s14.507 32 32 32c39.68 0 72.107-32.427 72.107-72.107s-32-72.531-72.107-72.531zM362.667-10.667c-17.493 0-32 14.507-32 32v128c0 17.493 14.507 32 32 32s32-14.507 32-32v-128c0-17.493-14.507-32-32-32zM661.333-10.667c-17.493 0-32 14.507-32 32v128c0 17.493 14.507 32 32 32s32-14.507 32-32v-128c0-17.493-14.507-32-32-32z" />
<glyph unicode="&#xe916;" glyph-name="alarm" d="M938.667-10.667h-853.333c-17.493 0-32 14.507-32 32s14.507 32 32 32h853.333c17.493 0 32-14.507 32-32s-14.507-32-32-32zM896-10.667h-768c-17.493 0-32 14.507-32 32v298.667c0 229.547 186.453 416 416 416s416-186.453 416-416v-298.667c0-17.493-14.507-32-32-32zM160 53.333h704v266.667c0 194.133-157.867 352-352 352s-352-157.867-352-352v-266.667zM512 800c-17.493 0-32 14.507-32 32v42.667c0 17.493 14.507 32 32 32s32-14.507 32-32v-42.667c0-17.493-14.507-32-32-32zM213.331 714.667c-8.107 0-16.213 2.987-22.613 9.387l-42.667 42.667c-12.373 12.373-12.373 32.853 0 45.227s32.853 12.373 45.227 0l42.667-42.667c12.373-12.373 12.373-32.853 0-45.227-6.4-6.4-14.507-9.387-22.613-9.387zM810.662 714.667c-8.107 0-16.213 2.987-22.613 9.387-12.373 12.373-12.373 32.853 0 45.227l42.667 42.667c12.373 12.373 32.853 12.373 45.227 0s12.373-32.853 0-45.227l-42.667-42.667c-6.4-6.4-14.507-9.387-22.613-9.387z" />
<glyph unicode="&#xe917;" glyph-name="align-bottom" d="M821.76 121.6c-17.493 0-32 14.507-32 32v503.467c0 43.093-8.96 57.6-63.147 57.6h-44.373c-54.187 0-63.147-14.507-63.147-57.6v-503.467c0-17.493-14.507-32-32-32s-32 14.507-32 32v503.467c0 81.92 41.813 121.6 127.147 121.6h44.373c85.76 0 127.147-39.68 127.147-121.6v-503.467c0-17.493-14.507-32-32-32zM459.093 121.6c-17.493 0-32 14.507-32 32v290.133c0 43.093-8.96 57.6-63.147 57.6h-44.373c-54.187 0-63.147-14.507-63.147-57.6v-290.133c0-17.493-14.507-32-32-32s-32 14.507-32 32v290.133c0 81.92 41.813 121.6 127.147 121.6h44.373c85.76 0 127.147-39.68 127.147-121.6v-290.133c0-17.493-14.507-32-32-32zM938.667 117.333h-853.333c-17.493 0-32 14.507-32 32s14.080 32 32 32h853.333c17.493 0 32-14.507 32-32s-14.080-32-32-32z" />
<glyph unicode="&#xe918;" glyph-name="align-horizontally" d="M342.187 96h-44.373c-85.76 0-127.147 39.68-127.147 121.6v460.8c0 81.92 41.813 121.6 127.147 121.6h44.373c85.333 0 127.147-39.68 127.147-121.6v-460.8c0-81.92-41.813-121.6-127.147-121.6zM297.813 736c-54.187 0-63.147-14.507-63.147-57.6v-460.8c0-43.093 8.96-57.6 63.147-57.6h44.373c54.187 0 63.147 14.507 63.147 57.6v460.8c0 43.093-8.96 57.6-63.147 57.6h-44.373zM704.853 181.333h-44.373c-85.76 0-127.147 39.68-127.147 121.6v290.133c0 81.92 41.813 121.6 127.147 121.6h44.373c85.76 0 127.147-39.68 127.147-121.6v-290.133c0-81.92-41.813-121.6-127.147-121.6zM660.48 650.667c-54.187 0-63.147-14.507-63.147-57.6v-290.133c0-43.093 8.96-57.6 63.147-57.6h44.373c54.187 0 63.147 14.507 63.147 57.6v290.133c0 43.093-8.96 57.6-63.147 57.6h-44.373zM187.733 416h-102.4c-17.493 0-32 14.507-32 32s14.080 32 32 32h102.4c17.493 0 32-14.507 32-32s-14.080-32-32-32zM554.667 416h-85.333c-17.493 0-32 14.507-32 32s14.507 32 32 32h85.333c17.493 0 32-14.507 32-32s-14.507-32-32-32zM938.667 416h-115.2c-17.493 0-32 14.507-32 32s14.507 32 32 32h115.2c17.493 0 32-14.507 32-32s-14.080-32-32-32z" />
<glyph unicode="&#xe919;" glyph-name="align-left" d="M721.067 106.667h-503.466c-17.493 0-32 14.507-32 32s14.507 32 32 32h503.466c43.093 0 57.6 8.96 57.6 63.147v44.373c0 54.187-14.507 63.147-57.6 63.147h-503.466c-17.493 0-32 14.507-32 32s14.507 32 32 32h503.466c81.92 0 121.6-41.813 121.6-127.147v-44.373c0-85.333-39.68-127.147-121.6-127.147zM507.733 469.333h-290.133c-17.493 0-32 14.507-32 32s14.507 32 32 32h290.133c43.093 0 57.6 8.96 57.6 63.147v44.373c0 54.187-14.507 63.147-57.6 63.147h-290.133c-17.493 0-32 14.507-32 32s14.507 32 32 32h290.133c81.92 0 121.6-41.813 121.6-127.147v-44.373c0-85.333-39.68-127.147-121.6-127.147zM213.333-10.24c-17.493 0-32 14.507-32 32v853.334c0 17.493 14.507 32 32 32s32-14.507 32-32v-853.334c0-17.493-14.507-32-32-32z" />
<glyph unicode="&#xe91a;" glyph-name="align-right" d="M806.4 106.667h-503.467c-81.92 0-121.6 41.813-121.6 127.147v44.373c0 85.333 39.68 127.147 121.6 127.147h503.467c17.493 0 32-14.507 32-32s-14.507-32-32-32h-503.467c-43.093 0-57.6-8.96-57.6-63.147v-44.373c0-54.187 14.507-63.147 57.6-63.147h503.467c17.493 0 32-14.507 32-32s-14.507-32-32-32zM806.4 469.333h-290.133c-81.92 0-121.6 41.813-121.6 127.147v44.373c0 85.76 39.68 127.147 121.6 127.147h290.133c17.493 0 32-14.507 32-32s-14.507-32-32-32h-290.133c-43.093 0-57.6-8.96-57.6-63.147v-44.373c0-54.187 14.507-63.147 57.6-63.147h290.133c17.493 0 32-14.507 32-32s-14.507-32-32-32zM810.667-10.24c-17.493 0-32 14.507-32 32v853.334c0 17.493 14.507 32 32 32s32-14.507 32-32v-853.334c0-17.493-14.507-32-32-32z" />
<glyph unicode="&#xe91b;" glyph-name="align-top" d="M726.613 117.333h-44.373c-85.76 0-127.147 39.68-127.147 121.6v503.466c0 17.493 14.507 32 32 32s32-14.507 32-32v-503.466c0-43.093 8.96-57.6 63.147-57.6h44.373c54.187 0 63.147 14.507 63.147 57.6v503.466c0 17.493 14.507 32 32 32s32-14.507 32-32v-503.466c0-81.92-41.387-121.6-127.147-121.6zM363.947 330.667h-44.373c-85.76 0-127.147 39.68-127.147 121.6v290.133c0 17.493 14.507 32 32 32s32-14.507 32-32v-290.133c0-43.093 8.96-57.6 63.147-57.6h44.373c54.187 0 63.147 14.507 63.147 57.6v290.133c0 17.493 14.507 32 32 32s32-14.507 32-32v-290.133c0-81.92-41.387-121.6-127.147-121.6zM938.667 714.667h-853.333c-17.92 0-32 14.507-32 32s14.080 32 32 32h853.333c17.493 0 32-14.507 32-32s-14.080-32-32-32z" />
<glyph unicode="&#xe91c;" glyph-name="align-vertically" d="M742.4 106.667h-460.8c-81.92 0-121.6 41.813-121.6 127.147v44.373c0 85.333 39.68 127.147 121.6 127.147h460.8c81.92 0 121.6-41.813 121.6-127.147v-44.373c0-85.333-39.68-127.147-121.6-127.147zM281.6 341.333c-43.093 0-57.6-8.96-57.6-63.147v-44.373c0-54.187 14.507-63.147 57.6-63.147h460.8c43.093 0 57.6 8.96 57.6 63.147v44.373c0 54.187-14.507 63.147-57.6 63.147h-460.8zM657.067 469.333h-290.133c-81.92 0-121.6 41.813-121.6 127.147v44.373c0 85.76 39.68 127.147 121.6 127.147h290.133c81.92 0 121.6-41.813 121.6-127.147v-44.373c0-85.333-39.68-127.147-121.6-127.147zM366.933 704c-43.093 0-57.6-8.96-57.6-63.147v-44.373c0-54.187 14.507-63.147 57.6-63.147h290.133c43.093 0 57.6 8.96 57.6 63.147v44.373c0 54.187-14.507 63.147-57.6 63.147h-290.133zM512-10.667c-17.493 0-32 14.507-32 32v102.4c0 17.493 14.507 32 32 32s32-14.507 32-32v-102.4c0-17.493-14.507-32-32-32zM512 373.333c-17.493 0-32 14.507-32 32v85.333c0 17.493 14.507 32 32 32s32-14.507 32-32v-85.333c0-17.493-14.507-32-32-32zM512 727.893c-17.493 0-32 14.507-32 32v114.773c0 17.493 14.507 32 32 32s32-14.080 32-32v-114.773c0-17.92-14.507-32-32-32z" />
<glyph unicode="&#xe91d;" glyph-name="android" d="M426.667-10.667c-40.96 0-74.667 33.707-74.667 74.667v128c0 17.493 14.507 32 32 32h85.333c17.493 0 32-14.507 32-32v-128c0-40.96-33.707-74.667-74.667-74.667zM416 160v-96c0-11.52 21.333-11.52 21.333 0v96h-21.333zM597.333-10.667c-40.96 0-74.667 33.707-74.667 74.667v128c0 17.493 14.507 32 32 32h85.333c17.493 0 32-14.507 32-32v-128c0-40.96-33.707-74.667-74.667-74.667zM586.667 160v-96c0-11.52 21.333-11.52 21.333 0v96h-21.333zM640 160h-256c-64.853 0-117.333 52.48-117.333 117.333v213.333c0 64.853 52.48 117.333 117.333 117.333h256c64.853 0 117.333-52.48 117.333-117.333v-213.333c0-64.853-52.48-117.333-117.333-117.333zM384 544c-29.44 0-53.333-23.893-53.333-53.333v-213.333c0-29.44 23.893-53.333 53.333-53.333h256c29.44 0 53.333 23.893 53.333 53.333v213.333c0 29.44-23.893 53.333-53.333 53.333h-256zM170.667 245.333c-40.96 0-74.667 33.707-74.667 74.667v170.667c0 40.96 33.707 74.667 74.667 74.667s74.667-33.707 74.667-74.667v-170.667c0-40.96-33.707-74.667-74.667-74.667zM170.667 501.333c-5.973 0-10.667-4.693-10.667-10.667v-170.667c0-11.947 21.333-11.947 21.333 0v170.667c0 5.973-4.693 10.667-10.667 10.667zM853.333 245.333c-40.96 0-74.667 33.707-74.667 74.667v170.667c0 40.96 33.707 74.667 74.667 74.667s74.667-33.707 74.667-74.667v-170.667c0-40.96-33.707-74.667-74.667-74.667zM853.333 501.333c-5.973 0-10.667-4.693-10.667-10.667v-170.667c0-11.947 21.333-11.947 21.333 0v170.667c0 5.973-4.693 10.667-10.667 10.667zM554.667 160h-85.333c-17.493 0-32 14.507-32 32s14.507 32 32 32h85.333c17.493 0 32-14.507 32-32s-14.507-32-32-32zM614.4 629.332h-204.801c-55.467 0-100.266 44.8-100.266 100.267 0 111.787 90.88 202.666 202.667 202.666s202.667-90.88 202.667-202.666c0-55.467-44.8-100.267-100.267-100.267zM512 868.266c-76.373 0-138.667-62.293-138.667-138.667 0-20.053 16.212-36.267 36.266-36.267h204.801c20.053 0 36.267 16.214 36.267 36.267 0 76.373-62.293 138.667-138.667 138.667z" />
<glyph unicode="&#xe91e;" glyph-name="ankr-ankr" d="M891.307 510.724c-17.493 0-32 14.507-32 31.998v122.453l-347.307 173.653-347.307-173.653v-122.453c0-17.491-14.507-31.998-32-31.998s-32 14.507-32 31.998v142.080c0 11.947 6.828 23.040 17.922 28.587l379.305 189.44c8.96 4.693 19.627 4.693 28.587 0l379.307-189.44c10.667-5.547 17.92-16.64 17.92-28.587v-142.080c-0.427-17.491-14.933-31.998-32.427-31.998zM512-10.667c-5.12 0-9.813 1.28-14.080 3.413l-379.305 189.44c-10.667 5.547-17.922 16.64-17.922 28.587v142.080c0 17.493 14.507 32 32 32s32-14.507 32-32v-122.453l347.307-173.653 347.307 173.653v122.453c0 17.493 14.507 32 32 32s32-14.507 32-32v-142.080c0-11.947-6.827-23.040-17.92-28.587l-379.307-189.44c-4.267-2.133-8.96-3.413-14.080-3.413zM512-10.662c-17.493 0-32 14.507-32 32v237.227c0 17.493 14.507 32 32 32s32-14.507 32-32v-237.227c0-17.493-14.507-32-32-32zM512 226.556c-122.027 0-221.44 99.413-221.44 221.44s99.413 221.442 221.44 221.442 221.44-99.413 221.44-221.442c0-122.027-99.413-221.44-221.44-221.44zM512 605.437c-87.040 0-157.44-70.827-157.44-157.442 0-86.613 70.827-157.44 157.44-157.44s157.44 70.827 157.44 157.44c0 86.615-70.4 157.442-157.44 157.442z" />
<glyph unicode="&#xe91f;" glyph-name="apple" d="M393.813-10.671c-0.427 0-0.853 0-1.707 0-71.68 0.427-122.88 64.853-159.147 120.747-92.587 142.080-111.36 320.853-44.374 424.535 44.8 69.547 117.334 112.641 189.014 112.641 37.12 0 66.133-10.241 91.733-19.628 20.48-7.253 37.973-13.652 56.32-13.652 16.213 0 30.293 5.546 48.213 12.372 24.747 9.387 55.040 20.908 98.987 20.908 63.147 0 128-33.707 173.227-90.88 5.973-7.253 8.107-17.067 6.4-26.028-1.707-9.387-7.68-17.067-15.787-21.76-48.213-26.453-74.667-74.667-70.827-129.28 3.84-55.467 37.973-102.4 89.173-121.6 8.107-2.987 14.933-9.387 18.347-17.493s3.413-17.493-0.427-25.173c-18.773-41.813-28.16-61.013-52.48-98.56-40.533-62.293-91.733-126.293-161.707-127.147-30.293 0-50.773 8.96-68.693 17.493-17.92 8.107-35.413 14.507-63.147 15.36-29.867 0-45.653-7.253-64-15.36-18.773-8.533-39.253-17.493-69.12-17.493zM377.6 583.251c-50.347 0-101.973-32-135.253-83.202-45.227-69.973-44.8-218.027 44.373-354.987 27.733-42.667 64.853-91.307 106.24-91.733 15.36 0.427 26.88 4.693 42.667 11.52 20.907 9.387 46.933 20.907 90.027 21.333 42.24 0.853 69.547-11.52 90.453-21.333 15.36-7.253 25.6-11.947 41.387-11.52 40.107 0.427 78.933 52.48 108.8 97.707 15.787 24.32 24.747 39.68 34.56 61.44-57.173 33.707-94.72 93.013-99.413 162.133-4.693 65.28 21.76 126.293 70.4 166.828-29.867 26.453-65.28 41.387-99.413 41.387-32 0-53.333-8.108-75.947-16.641-21.333-8.107-43.52-16.639-71.253-16.639-29.44 0-53.76 8.96-77.653 17.066-22.614 8.96-44.373 16.641-69.973 16.641zM504.32 655.784c-1.28 0-2.987 0-4.267 0-14.933 0.427-27.733 11.52-30.293 26.453-8.96 48.213 8.107 103.681 45.227 148.908 34.133 41.387 90.453 72.106 140.373 75.52 17.493 0.853 31.573-10.668 33.707-27.308 7.253-49.92-8.533-104.533-43.947-150.186-34.56-44.8-89.6-73.387-140.8-73.387zM625.067 834.13c-23.040-9.387-45.653-25.173-60.587-43.52-14.080-17.067-27.307-40.96-31.573-65.707 23.040 7.68 46.080 23.040 61.867 43.52 8.533 10.667 24.747 35.412 30.293 65.706z" />
<glyph unicode="&#xe920;" glyph-name="aquarius" d="M512 245.333c-17.493 0-32 14.507-32 32s14.507 32 32 32c147.2 0 266.667 119.467 266.667 266.667s-119.467 266.667-266.667 266.667c-147.2 0-266.667-119.467-266.667-266.667 0-17.493-14.507-32-32-32s-32 14.507-32 32c0 182.187 148.48 330.667 330.667 330.667s330.667-148.48 330.667-330.667c0-182.187-148.48-330.667-330.667-330.667zM512-10.667c-17.493 0-32 14.507-32 32v256c0 17.493 14.507 32 32 32s32-14.507 32-32v-256c0-17.493-14.507-32-32-32zM640 117.333h-256c-17.493 0-32 14.507-32 32s14.507 32 32 32h256c17.493 0 32-14.507 32-32s-14.507-32-32-32z" />
<glyph unicode="&#xe921;" glyph-name="archive-2" d="M704-10.667h-384c-140.8 0-160 76.8-160 160v374.613c0 17.495 14.507 32.001 32 32.001s32-14.507 32-32.001v-374.613c0-74.24 12.8-96 96-96h384c83.2 0 96 21.76 96 96v374.613c0 17.495 14.507 32.001 32 32.001s32-14.507 32-32.001v-374.613c0-83.2-19.2-160-160-160zM810.667 501.333h-597.333c-103.253 0-160 56.747-160 160v85.333c0 103.253 56.747 160 160 160h597.333c103.253 0 160-56.747 160-160v-85.333c0-103.253-56.747-160-160-160zM213.333 842.667c-67.413 0-96-28.587-96-96v-85.333c0-67.413 28.587-96 96-96h597.333c67.413 0 96 28.587 96 96v85.333c0 67.413-28.587 96-96 96h-597.333zM589.649 330.667h-155.307c-17.492 0-31.999 14.507-31.999 32s14.507 32 31.999 32h155.307c17.493 0 32-14.507 32-32s-14.507-32-32-32z" />
<glyph unicode="&#xe922;" glyph-name="archive" d="M512 521.382c-43.52 0-87.040 7.68-128.427 22.615-16.64 5.973-25.173 24.32-19.2 40.96 6.4 16.64 24.747 25.173 41.387 19.2 68.693-24.747 144.213-24.747 212.907 0 16.64 5.973 34.987-2.56 40.96-19.2s-2.56-34.987-19.2-40.96c-41.387-14.935-84.907-22.615-128.427-22.615zM813.649-10.667c-21.76 0-45.653 6.4-68.693 19.627l-208.213 115.627c-12.373 6.827-36.693 6.827-49.067 0l-208.211-115.627c-42.24-23.467-85.333-26.027-118.187-6.4-32.853 19.2-51.627 58.027-51.627 106.24v601.173c0 108.373 88.32 196.693 196.693 196.693h411.731c108.373 0 196.693-88.32 196.693-196.693v-601.173c0-48.213-18.773-87.040-51.627-106.24-14.933-8.96-32-13.227-49.493-13.227zM511.996 193.707c20.053 0 39.68-4.267 55.467-13.227l208.213-115.627c21.76-12.373 41.813-14.933 54.613-7.253s20.053 26.027 20.053 51.2v601.173c0 72.96-59.733 132.693-132.693 132.693h-411.305c-72.96 0-132.693-59.733-132.693-132.693v-601.173c0-25.173 7.253-43.947 20.053-51.2s32.427-5.12 54.613 7.253l208.211 115.627c15.787 8.96 35.413 13.227 55.467 13.227z" />
<glyph unicode="&#xe923;" glyph-name="archive-add" d="M618.667 473.6h-213.333c-17.493 0-32 14.507-32 32s14.507 31.999 32 31.999h213.333c17.493 0 32-14.506 32-31.999s-14.507-32-32-32zM512 364.373c-17.493 0-32 14.507-32 32v213.335c0 17.493 14.507 32 32 32s32-14.507 32-32v-213.335c0-17.493-14.507-32-32-32zM813.649-10.667c-21.76 0-45.653 6.4-68.693 19.627l-208.213 115.627c-12.373 6.827-36.693 6.827-49.067 0l-208.211-115.627c-42.24-23.467-85.333-26.027-118.187-6.4-32.853 19.2-51.627 58.027-51.627 106.24v601.173c0 108.373 88.32 196.693 196.693 196.693h411.731c108.373 0 196.693-88.32 196.693-196.693v-601.173c0-48.213-18.773-87.040-51.627-106.24-14.933-8.96-32-13.227-49.493-13.227zM511.996 193.707c20.053 0 39.68-4.267 55.467-13.227l208.213-115.627c21.76-12.373 41.813-14.933 54.613-7.253s20.053 26.027 20.053 51.2v601.173c0 72.96-59.733 132.693-132.693 132.693h-411.305c-72.96 0-132.693-59.733-132.693-132.693v-601.173c0-25.173 7.253-43.947 20.053-51.2s32.853-5.12 54.613 7.253l208.211 115.627c15.787 8.96 35.413 13.227 55.467 13.227z" />
<glyph unicode="&#xe924;" glyph-name="archive-book" d="M682.667-10.667h-341.333c-155.733 0-245.333 89.6-245.333 245.333v426.667c0 155.733 89.6 245.333 245.333 245.333h341.333c155.733 0 245.333-89.6 245.333-245.333v-426.667c0-155.733-89.6-245.333-245.333-245.333zM341.333 842.667c-122.027 0-181.333-59.307-181.333-181.333v-426.667c0-122.027 59.307-181.333 181.333-181.333h341.333c122.027 0 181.333 59.307 181.333 181.333v426.667c0 122.027-59.307 181.333-181.333 181.333h-341.333zM384 485.973c-7.253 0-14.507 1.28-21.333 4.267-19.627 8.533-32 27.733-32 48.64v335.787c0 17.493 14.507 32 32 32h298.667c17.493 0 32-14.507 32-32v-335.36c0-21.334-12.373-40.534-32-48.64-19.2-8.533-41.813-4.693-57.6 9.813l-91.733 84.054-91.734-84.48c-10.24-9.387-23.039-14.080-36.266-14.080zM512 652.372c12.8 0 26.027-4.692 36.267-14.078l81.067-74.667v279.039h-234.667v-279.039l81.067 74.667c10.24 9.387 23.467 14.078 36.267 14.078zM746.667 330.667h-181.333c-17.493 0-32 14.507-32 32s14.507 32 32 32h181.333c17.493 0 32-14.507 32-32s-14.507-32-32-32zM746.667 160h-362.667c-17.493 0-32 14.507-32 32s14.507 32 32 32h362.667c17.493 0 32-14.507 32-32s-14.507-32-32-32z" />
<glyph unicode="&#xe925;" glyph-name="archive-minus" d="M618.667 473.6h-213.333c-17.493 0-32 14.507-32 32s14.507 31.999 32 31.999h213.333c17.493 0 32-14.506 32-31.999s-14.507-32-32-32zM210.349-10.667c-17.92 0-34.56 4.267-49.493 12.8-32.853 19.2-51.627 58.027-51.627 106.24v601.6c0 108.373 88.32 196.693 196.693 196.693h411.735c108.373 0 196.693-88.32 196.693-196.693v-601.173c0-48.213-18.773-87.040-51.627-106.24s-75.947-17.067-118.187 6.4l-208.213 115.627c-12.373 6.827-36.693 6.827-49.067 0l-208.215-115.627c-23.040-12.8-46.507-19.627-68.693-19.627zM306.349 842.667c-72.96 0-132.693-59.733-132.693-132.693v-601.173c0-25.173 7.253-43.947 20.053-51.2 12.8-7.68 32.853-5.12 54.613 7.253l208.215 115.627c31.573 17.493 79.36 17.493 110.933 0l208.213-115.627c21.76-12.373 41.813-14.933 54.613-7.253s20.053 26.453 20.053 51.2v601.173c0 72.96-59.733 132.693-132.693 132.693h-411.308z" />
<glyph unicode="&#xe926;" glyph-name="archive-slash" d="M85.331-10.662c-8.107 0-16.213 2.987-22.613 9.387-12.373 12.373-12.373 32.853 0 45.227l853.332 853.332c12.373 12.373 32.853 12.373 45.227 0s12.373-32.853 0-45.227l-853.332-853.332c-6.4-6.4-14.507-9.387-22.613-9.387zM805.547-10.667c-23.893 0-49.493 7.253-75.093 21.333l-278.187 173.653c-14.933 9.387-19.627 29.013-10.24 43.947s29.013 19.627 43.947 10.24l276.907-172.8c23.893-13.227 47.787-16.213 63.147-7.253s24.32 31.147 24.32 60.587v469.335c0 17.493 14.507 32 32 32s32-14.507 32-32v-469.335c0-52.48-20.48-94.72-55.893-115.627-15.787-9.387-33.707-14.080-52.907-14.080zM141.651 76.8c-17.493 0-32 14.507-32 32v601.173c0 108.373 88.32 196.693 196.693 196.693h411.731c59.307 0 115.2-26.453 152.747-72.96 11.093-13.653 8.96-33.707-4.693-45.227-13.653-11.093-33.707-8.96-44.8 4.693-25.6 31.573-63.147 49.493-103.253 49.493h-411.731c-72.96 0-132.693-59.733-132.693-132.693v-601.173c0-17.493-14.507-32-32-32z" />
<glyph unicode="&#xe927;" glyph-name="archive-tick" d="M210.349-10.667c-17.92 0-34.56 4.267-49.493 12.8-32.853 19.2-51.627 58.027-51.627 106.24v601.6c0 108.373 88.32 196.693 196.693 196.693h411.735c108.373 0 196.693-88.32 196.693-196.693v-601.173c0-48.213-18.773-87.040-51.627-106.24s-75.947-17.067-118.187 6.4l-208.213 115.627c-12.373 6.827-36.693 6.827-49.067 0l-208.215-115.627c-23.040-12.8-46.507-19.627-68.693-19.627zM306.349 842.667c-72.96 0-132.693-59.733-132.693-132.693v-601.173c0-25.173 7.253-43.947 20.053-51.2s32.853-5.12 54.613 7.253l208.215 115.627c31.573 17.493 79.36 17.493 110.933 0l208.213-115.627c21.76-12.373 41.813-14.933 54.613-7.253s20.053 26.453 20.053 51.2v601.173c0 72.96-59.733 132.693-132.693 132.693h-411.308zM473.173 394.671c-8.107 0-16.213 2.987-22.613 9.387l-63.999 64c-12.373 12.373-12.373 32.853 0 45.227s32.853 12.373 45.225 0l41.387-41.387 148.053 148.052c12.373 12.373 32.853 12.373 45.227 0s12.373-32.853 0-45.227l-170.667-170.665c-6.4-6.4-14.507-9.387-22.613-9.387z" />
<glyph unicode="&#xe928;" glyph-name="arrange-circle" d="M719.347 506.027c-8.107 0-16.213 2.987-22.613 9.387l-129.702 129.705c-12.373 12.373-12.373 32.853 0 45.227s32.853 12.373 45.227 0l129.707-129.706c12.373-12.373 12.373-32.852 0-45.226-6.4-5.973-14.511-9.387-22.618-9.387zM589.645 196.267c-17.493 0-32 14.507-32 32v439.895c0 17.493 14.507 32 32 32s32-14.507 32-32v-439.895c0-17.92-14.507-32-32-32zM434.351 196.271c-8.107 0-16.214 2.987-22.614 9.387l-129.707 129.702c-12.373 12.373-12.373 32.858 0 45.231s32.855 12.373 45.228 0l129.706-129.707c12.373-12.373 12.373-32.853 0-45.227-5.973-6.4-14.080-9.387-22.613-9.387zM434.334 196.267c-17.494 0-32 14.507-32 32v439.895c0 17.493 14.507 32 32 32s32-14.507 32-32v-439.895c0-17.92-14.080-32-32-32zM512-10.667c-253.013 0-458.667 205.653-458.667 458.667s205.653 458.667 458.667 458.667c253.013 0 458.667-205.653 458.667-458.667s-205.653-458.667-458.667-458.667zM512 842.667c-217.6 0-394.667-177.067-394.667-394.667s177.067-394.667 394.667-394.667c217.6 0 394.667 177.067 394.667 394.667s-177.067 394.667-394.667 394.667z" />
<glyph unicode="&#xe929;" glyph-name="arrange-circle-2" d="M602.018 208.64c-8.107 0-16.213 2.987-22.613 9.387-12.373 12.373-12.373 32.853 0 45.227l129.707 129.707c12.373 12.373 32.853 12.373 45.227 0s12.373-32.853 0-45.227l-129.707-129.707c-5.973-5.973-14.080-9.387-22.613-9.387zM731.725 338.342h-439.892c-17.493 0-32 14.507-32 32s14.507 32 32 32h439.892c17.493 0 32-14.507 32-32s-14.080-32-32-32zM292.268 493.653c-8.107 0-16.213 2.987-22.613 9.387-12.373 12.373-12.373 32.855 0 45.228l129.706 129.707c12.373 12.373 32.852 12.373 45.226 0s12.373-32.854 0-45.228l-129.705-129.708c-6.4-6.4-14.507-9.387-22.613-9.387zM731.725 493.658h-439.892c-17.493 0-32 14.507-32 32s14.507 31.999 32 31.999h439.892c17.493 0 32-14.507 32-31.999s-14.080-32-32-32zM512-10.667c-253.013 0-458.667 205.653-458.667 458.667s205.653 458.667 458.667 458.667c253.013 0 458.667-205.653 458.667-458.667s-205.653-458.667-458.667-458.667zM512 842.667c-217.6 0-394.667-177.067-394.667-394.667s177.067-394.667 394.667-394.667c217.6 0 394.667 177.067 394.667 394.667s-177.067 394.667-394.667 394.667z" />
<glyph unicode="&#xe92a;" glyph-name="arrange-square" d="M640-10.667h-256c-231.68 0-330.667 98.987-330.667 330.667v256c0 231.68 98.987 330.667 330.667 330.667h256c231.68 0 330.667-98.987 330.667-330.667v-256c0-231.68-98.987-330.667-330.667-330.667zM384 842.667c-196.693 0-266.667-69.973-266.667-266.667v-256c0-196.693 69.973-266.667 266.667-266.667h256c196.693 0 266.667 69.973 266.667 266.667v256c0 196.693-69.973 266.667-266.667 266.667h-256zM602.018 208.64c-8.107 0-16.213 2.987-22.613 9.387-12.373 12.373-12.373 32.853 0 45.227l129.707 129.707c12.373 12.373 32.853 12.373 45.227 0s12.373-32.853 0-45.227l-129.707-129.707c-5.973-5.973-14.080-9.387-22.613-9.387zM731.738 338.342h-439.467c-17.493 0-32 14.507-32 32s14.507 32 32 32h439.893c17.493 0 32-14.507 32-32s-14.507-32-32.427-32zM292.268 493.649c-8.107 0-16.213 2.987-22.613 9.387-12.373 12.373-12.373 32.854 0 45.228l129.707 129.707c12.373 12.373 32.852 12.373 45.225 0s12.373-32.853 0-45.227l-129.705-129.708c-6.4-6.4-14.507-9.387-22.613-9.387zM731.738 493.649h-439.467c-17.493 0-32 14.507-32 32 0 17.495 14.507 32.002 32 32.002h439.893c17.493 0 32-14.507 32-32.002 0-17.493-14.507-32-32.427-32z" />
<glyph unicode="&#xe92b;" glyph-name="arrange-square-2" d="M640-10.667h-256c-231.68 0-330.667 98.987-330.667 330.667v256c0 231.68 98.987 330.667 330.667 330.667h256c231.68 0 330.667-98.987 330.667-330.667v-256c0-231.68-98.987-330.667-330.667-330.667zM384 842.667c-196.693 0-266.667-69.973-266.667-266.667v-256c0-196.693 69.973-266.667 266.667-266.667h256c196.693 0 266.667 69.973 266.667 266.667v256c0 196.693-69.973 266.667-266.667 266.667h-256zM434.351 196.267c-8.108 0-16.214 2.987-22.614 9.387l-129.707 129.707c-12.373 12.373-12.373 32.853 0 45.227s32.853 12.373 45.227 0l129.708-129.707c12.373-12.373 12.373-32.853 0-45.227-5.973-6.4-14.080-9.387-22.613-9.387zM434.355 196.267c-17.494 0-32.001 14.507-32.001 32v439.468c0 17.493 14.507 32 32.001 32s32-14.507 32-32v-439.894c0-17.493-14.080-31.573-32-31.573zM719.351 506.027c-8.107 0-16.213 2.987-22.613 9.387l-129.707 129.705c-12.373 12.373-12.373 32.853 0 45.227s32.853 12.373 45.227 0l129.707-129.707c12.373-12.373 12.373-32.852 0-45.225-6.4-5.973-14.507-9.387-22.613-9.387zM589.645 196.267c-17.493 0-32 14.507-32 32v439.468c0 17.493 14.507 32 32 32s32-14.507 32-32v-439.894c0-17.493-14.507-31.573-32-31.573z" />
<glyph unicode="&#xe92c;" glyph-name="arrow" d="M512-10.667c-17.493 0-32 14.507-32 32v85.333c0 17.493 14.507 32 32 32s32-14.507 32-32v-85.333c0-17.493-14.507-32-32-32zM512 160c-17.493 0-32 14.507-32 32v85.333c0 17.493 14.507 32 32 32s32-14.507 32-32v-85.333c0-17.493-14.507-32-32-32zM512 330.667c-17.493 0-32 14.507-32 32v128c0 182.187 148.48 330.667 330.667 330.667h128c17.493 0 32-14.507 32-32s-14.507-32-32-32h-128c-147.2 0-266.667-119.467-266.667-266.667v-128c0-17.493-14.507-32-32-32zM512 330.667c-17.493 0-32 14.507-32 32v128c0 147.2-119.467 266.667-266.667 266.667h-128c-17.493 0-32 14.507-32 32s14.507 32 32 32h128c182.187 0 330.667-148.48 330.667-330.667v-128c0-17.493-14.507-32-32-32zM170.665 672c-8.107 0-16.215 2.987-22.615 9.387l-85.333 85.333c-12.373 12.373-12.373 32.853 0 45.227l85.333 85.333c12.373 12.373 32.856 12.373 45.229 0s12.373-32.853 0-45.227l-62.721-62.72 62.721-62.72c12.373-12.373 12.373-32.853 0-45.227-6.4-6.4-14.508-9.387-22.615-9.387zM853.333 672c-8.107 0-16.218 2.987-22.618 9.387-12.373 12.373-12.373 32.853 0 45.227l62.724 62.72-62.724 62.72c-12.373 12.373-12.373 32.853 0 45.227s32.858 12.373 45.231 0l85.333-85.333c12.373-12.373 12.373-32.853 0-45.227l-85.333-85.333c-6.4-6.4-14.507-9.387-22.613-9.387z" />
<glyph unicode="&#xe92d;" glyph-name="arrow-2" d="M712.241 482.133c-7.206 0-14.416 2.989-20.105 9.387-10.999 12.375-10.999 32.855 0 45.227l120.984 136.107-120.984 136.107c-10.999 12.373-10.999 32.853 0 45.226s29.203 12.373 40.201 0l141.088-158.721c5.31-5.973 8.34-14.079 8.34-22.612s-3.030-16.641-8.34-22.614l-141.088-158.72c-5.689-5.973-12.891-9.387-20.097-9.387zM853.333 640.852h-682.667c-15.55 0-28.444 14.507-28.444 32s12.895 32 28.444 32h682.667c15.55 0 28.444-14.507 28.444-32s-12.895-32-28.444-32zM311.75 32.002c-7.206 0-14.411 2.985-20.1 9.383l-141.086 158.724c-5.31 5.973-8.343 14.078-8.343 22.611s3.033 16.642 8.343 22.615l141.086 158.716c10.999 12.375 29.203 12.375 40.201 0 10.999-12.371 10.999-32.851 0-45.223l-120.984-136.109 120.984-136.105c10.999-12.371 10.999-32.855 0-45.23-5.31-6.398-12.517-9.383-20.102-9.383zM853.333 191.147h-682.667c-15.55 0-28.444 14.507-28.444 32.002 0 17.491 12.895 31.998 28.444 31.998h682.667c15.55 0 28.444-14.507 28.444-31.998 0-17.495-12.895-32.002-28.444-32.002z" />
<glyph unicode="&#xe92e;" glyph-name="arrow-3" d="M453.222 641.281c-7.206 0-14.412 2.986-20.101 9.386l-120.984 136.107-120.984-136.107c-10.999-12.373-29.203-12.373-40.201 0s-10.999 32.853 0 45.227l141.086 158.721c5.31 5.973 12.514 9.386 20.1 9.386s14.792-3.412 20.101-9.386l141.084-158.721c10.999-12.373 10.999-32.853 0-45.227-5.689-6.4-12.895-9.386-20.101-9.386zM312.13 31.998c-15.55 0-28.444 14.51-28.444 32.002v768c0 17.493 12.895 32 28.444 32s28.444-14.507 28.444-32v-768c0-17.491-12.895-32.002-28.444-32.002zM712.249 32.002c-7.585 0-14.791 3.413-20.101 9.387l-141.084 158.72c-10.999 12.375-10.999 32.855 0 45.227 10.999 12.375 29.203 12.375 40.201 0l120.984-136.105 120.98 136.105c10.999 12.375 29.207 12.375 40.205 0 10.999-12.371 10.999-32.851 0-45.227l-141.084-158.72c-5.31-5.973-12.895-9.387-20.101-9.387zM711.87 31.998c-15.55 0-28.444 14.51-28.444 32.002v768c0 17.493 12.895 32 28.444 32s28.444-14.507 28.444-32v-768c0-17.491-12.516-32.002-28.444-32.002z" />
<glyph unicode="&#xe92f;" glyph-name="arrow-bottom" d="M512 160c-60.587 0-116.053 38.4-156.16 107.947l-113.92 197.547c-40.533 69.547-45.653 136.533-15.36 189.013s91.307 81.493 171.52 81.493h227.84c80.213 0 141.227-29.013 171.52-81.493s24.747-119.893-15.36-189.44l-113.92-197.547c-40.107-69.12-95.573-107.52-156.16-107.52zM398.080 672c-56.747 0-97.707-17.493-116.053-49.493-18.773-32-13.227-76.373 14.933-125.013l113.92-197.547c28.16-49.067 64-75.947 100.693-75.947s72.533 26.88 100.693 75.947l113.92 197.547c28.16 49.067 33.707 93.44 15.36 125.44s-59.733 49.493-116.053 49.493h-227.413v-0.427z" />
<glyph unicode="&#xe930;" glyph-name="arrow-circle-down" d="M512-10.667c-253.013 0-458.667 205.653-458.667 458.667s205.653 458.667 458.667 458.667c253.013 0 458.667-205.653 458.667-458.667s-205.653-458.667-458.667-458.667zM512 842.667c-217.6 0-394.667-177.067-394.667-394.667s177.067-394.667 394.667-394.667c217.6 0 394.667 177.067 394.667 394.667s-177.067 394.667-394.667 394.667zM512 319.573c-8.107 0-16.213 2.987-22.613 9.387l-150.612 150.613c-12.373 12.373-12.373 32.853 0 45.227 12.373 12.372 32.853 12.372 45.227 0l127.999-128 128 128c12.373 12.372 32.853 12.372 45.227 0s12.373-32.853 0-45.227l-150.613-150.613c-6.4-6.4-14.507-9.387-22.613-9.387z" />
<glyph unicode="&#xe931;" glyph-name="arrow-circle-left" d="M512-10.667c-253.013 0-458.667 205.653-458.667 458.667s205.653 458.667 458.667 458.667c253.013 0 458.667-205.653 458.667-458.667s-205.653-458.667-458.667-458.667zM512 842.667c-217.6 0-394.667-177.067-394.667-394.667s177.067-394.667 394.667-394.667c217.6 0 394.667 177.067 394.667 394.667s-177.067 394.667-394.667 394.667zM565.76 265.387c-8.107 0-16.213 2.987-22.613 9.387l-150.612 150.613c-12.373 12.373-12.373 32.853 0 45.227l150.612 150.612c12.373 12.373 32.853 12.373 45.227 0s12.373-32.853 0-45.227l-128-127.999 128-128c12.373-12.373 12.373-32.853 0-45.227-5.973-6.4-14.080-9.387-22.613-9.387z" />
<glyph unicode="&#xe932;" glyph-name="arrow-circle-right" d="M512-10.667c-253.013 0-458.667 205.653-458.667 458.667s205.653 458.667 458.667 458.667c253.013 0 458.667-205.653 458.667-458.667s-205.653-458.667-458.667-458.667zM512 842.667c-217.6 0-394.667-177.067-394.667-394.667s177.067-394.667 394.667-394.667c217.6 0 394.667 177.067 394.667 394.667s-177.067 394.667-394.667 394.667zM458.244 265.387c-8.107 0-16.213 2.987-22.613 9.387-12.375 12.373-12.375 32.853 0 45.227l128 128-128 127.999c-12.375 12.373-12.375 32.853 0 45.227 12.373 12.373 32.853 12.373 45.227 0l150.613-150.612c12.373-12.373 12.373-32.853 0-45.227l-150.613-150.613c-6.4-6.4-14.507-9.387-22.613-9.387z" />
<glyph unicode="&#xe933;" glyph-name="arrow-circle-up" d="M512-10.667c-253.013 0-458.667 205.653-458.667 458.667s205.653 458.667 458.667 458.667c253.013 0 458.667-205.653 458.667-458.667s-205.653-458.667-458.667-458.667zM512 842.667c-217.6 0-394.667-177.067-394.667-394.667s177.067-394.667 394.667-394.667c217.6 0 394.667 177.067 394.667 394.667s-177.067 394.667-394.667 394.667zM662.609 362.24c-8.107 0-16.213 2.987-22.613 9.387l-128 128-128-128c-12.373-12.373-32.853-12.373-45.227 0s-12.373 32.853 0 45.227l150.613 150.612c12.373 12.373 32.853 12.373 45.227 0l150.613-150.612c12.373-12.373 12.373-32.853 0-45.227-6.4-6.4-14.507-9.387-22.613-9.387z" />
<glyph unicode="&#xe934;" glyph-name="arrow-down" d="M512-10.667c-253.013 0-458.667 205.653-458.667 458.667s205.653 458.667 458.667 458.667c253.013 0 458.667-205.653 458.667-458.667s-205.653-458.667-458.667-458.667zM512 842.667c-217.6 0-394.667-177.067-394.667-394.667s177.067-394.667 394.667-394.667c217.6 0 394.667 177.067 394.667 394.667s-177.067 394.667-394.667 394.667zM512 309.333c-17.493 0-32 14.507-32 32v256c0 17.493 14.507 32 32 32s32-14.507 32-32v-256c0-17.493-14.507-32-32-32zM511.996 266.671c-8.107 0-16.213 2.987-22.613 9.387l-127.998 128c-12.373 12.373-12.373 32.853 0 45.227s32.853 12.373 45.227 0l105.385-105.387 105.387 105.387c12.373 12.373 32.853 12.373 45.227 0s12.373-32.853 0-45.227l-128-128c-6.4-6.4-14.507-9.387-22.613-9.387z" />
<glyph unicode="&#xe935;" glyph-name="arrow-down-1" d="M512 243.2c-29.867 0-59.733 11.52-82.347 34.133l-278.186 278.186c-12.373 12.373-12.373 32.853 0 45.227s32.853 12.373 45.227 0l278.186-278.186c20.48-20.48 53.76-20.48 74.24 0l278.187 278.186c12.373 12.373 32.853 12.373 45.227 0s12.373-32.853 0-45.227l-278.187-278.186c-22.613-22.613-52.48-34.133-82.347-34.133z" />
<glyph unicode="&#xe936;" glyph-name="arrow-down-2" d="M512.004 53.331c-7.206 0-14.412 2.989-20.101 9.387l-230.21 258.989c-10.999 12.371-10.999 32.851 0 45.227 10.999 12.371 29.203 12.371 40.201 0l210.109-236.373 210.11 236.373c10.999 12.371 29.203 12.371 40.201 0 10.999-12.375 10.999-32.855 0-45.227l-230.21-258.989c-5.689-6.398-12.895-9.387-20.101-9.387zM512 60.587c-15.55 0-28.444 14.507-28.444 32.002v718.078c0 17.493 12.895 32 28.444 32s28.444-14.507 28.444-32v-718.078c0-17.495-12.895-32.002-28.444-32.002z" />
<glyph unicode="&#xe937;" glyph-name="arrow-left" d="M512-10.667c-253.013 0-458.667 205.653-458.667 458.667s205.653 458.667 458.667 458.667c253.013 0 458.667-205.653 458.667-458.667s-205.653-458.667-458.667-458.667zM512 842.667c-217.6 0-394.667-177.067-394.667-394.667s177.067-394.667 394.667-394.667c217.6 0 394.667 177.067 394.667 394.667s-177.067 394.667-394.667 394.667zM661.333 416h-256c-17.493 0-32 14.507-32 32s14.507 32 32 32h256c17.493 0 32-14.507 32-32s-14.507-32-32-32zM490.662 288.004c-8.107 0-16.213 2.987-22.613 9.387l-127.998 128c-12.373 12.373-12.373 32.853 0 45.227l127.998 127.998c12.373 12.373 32.853 12.373 45.227 0s12.373-32.853 0-45.227l-105.385-105.385 105.385-105.387c12.373-12.373 12.373-32.853 0-45.227-6.4-6.4-14.507-9.387-22.613-9.387z" />
<glyph unicode="&#xe938;" glyph-name="arrow-left-1" d="M644.267 142.933c-35.84 0-75.093 11.52-114.773 34.56l-197.547 113.92c-69.547 40.533-107.947 96-107.947 156.587s38.4 116.051 107.947 156.158l197.547 113.92c69.547 40.107 136.533 45.653 189.44 15.36 52.48-30.293 81.493-91.307 81.493-171.52v-227.838c0-80.213-29.013-141.227-81.493-171.52-22.613-13.227-47.787-19.627-74.667-19.627zM644.267 688.638c-24.747 0-52.907-8.533-82.773-26.027l-197.547-113.92c-49.067-28.158-75.947-63.998-75.947-100.691s26.88-72.533 75.947-100.693l197.547-113.92c49.067-28.16 93.44-33.707 125.44-15.36s49.493 59.733 49.493 116.053v227.838c0 56.32-17.493 97.707-49.493 116.053-12.8 7.253-27.307 10.667-42.667 10.667z" />
<glyph unicode="&#xe939;" glyph-name="arrow-left-2" d="M640 78.080c-8.107 0-16.213 2.987-22.613 9.387l-278.185 278.187c-45.227 45.227-45.227 119.467 0 164.693l278.185 278.186c12.373 12.373 32.853 12.373 45.227 0s12.373-32.853 0-45.227l-278.185-278.186c-20.48-20.48-20.48-53.76 0-74.24l278.185-278.187c12.373-12.373 12.373-32.853 0-45.227-6.4-5.973-14.507-9.387-22.613-9.387z" />
<glyph unicode="&#xe93a;" glyph-name="arrow-left-3" d="M419.838 157.013c-7.206 0-14.412 2.985-20.101 9.387l-230.21 258.985c-10.999 12.375-10.999 32.855 0 45.227l230.21 258.988c10.999 12.373 29.203 12.373 40.2 0 10.999-12.373 10.999-32.853 0-45.227l-210.108-236.373 210.108-236.373c10.999-12.375 10.999-32.855 0-45.227-5.308-6.402-12.893-9.387-20.099-9.387zM834.37 415.998h-638.292c-15.55 0-28.444 14.51-28.444 32.002s12.895 32.002 28.444 32.002h638.292c15.55 0 28.444-14.51 28.444-32.002s-12.895-32.002-28.444-32.002z" />
<glyph unicode="&#xe93b;" glyph-name="arrow-right" d="M512-10.667c-253.013 0-458.667 205.653-458.667 458.667s205.653 458.667 458.667 458.667c253.013 0 458.667-205.653 458.667-458.667s-205.653-458.667-458.667-458.667zM512 842.667c-217.6 0-394.667-177.067-394.667-394.667s177.067-394.667 394.667-394.667c217.6 0 394.667 177.067 394.667 394.667s-177.067 394.667-394.667 394.667zM618.667 416h-256c-17.493 0-32 14.507-32 32s14.507 32 32 32h256c17.493 0 32-14.507 32-32s-14.507-32-32-32zM533.329 288.004c-8.107 0-16.213 2.987-22.613 9.387-12.373 12.373-12.373 32.853 0 45.227l105.387 105.387-105.387 105.385c-12.373 12.373-12.373 32.853 0 45.227s32.853 12.373 45.227 0l128-127.998c12.373-12.373 12.373-32.853 0-45.227l-128-128c-6.4-6.4-14.507-9.387-22.613-9.387z" />
<glyph unicode="&#xe93c;" glyph-name="arrow-right-1" d="M379.733 142.933c-26.88 0-52.053 6.4-74.24 19.2-52.48 30.293-81.493 91.307-81.493 171.52v228.265c0 80.213 29.013 141.227 81.493 171.52s119.467 24.747 189.44-15.36l197.547-113.92c69.547-40.107 107.947-95.571 107.947-156.158s-38.4-116.053-107.947-156.16l-197.547-113.92c-40.107-23.467-79.36-34.987-115.2-34.987zM379.733 688.638c-15.787 0-30.293-3.413-42.667-10.667-31.573-18.347-49.067-59.307-49.067-116.053v-227.838c0-56.32 17.493-97.707 49.493-116.053s76.373-12.8 125.44 15.36l197.547 113.92c49.067 28.16 75.947 64 75.947 100.693s-26.88 72.533-75.947 100.691l-197.547 113.92c-30.293 17.493-58.453 26.027-83.2 26.027z" />
<glyph unicode="&#xe93d;" glyph-name="arrow-right-2" d="M380.159 78.080c-8.107 0-16.213 2.987-22.613 9.387-12.373 12.373-12.373 32.853 0 45.227l278.188 278.187c20.48 20.48 20.48 53.76 0 74.24l-278.188 278.186c-12.373 12.373-12.373 32.853 0 45.227s32.853 12.373 45.227 0l278.188-278.186c21.76-21.76 34.133-51.2 34.133-82.347s-11.947-60.587-34.133-82.347l-278.188-278.187c-6.4-5.973-14.507-9.387-22.613-9.387z" />
<glyph unicode="&#xe93e;" glyph-name="arrow-right-3" d="M604.16 157.013c-7.206 0-14.412 2.985-20.101 9.387-10.999 12.371-10.999 32.851 0 45.227l210.11 236.373-210.11 236.373c-10.999 12.373-10.999 32.853 0 45.227s29.203 12.373 40.201 0l230.21-258.988c10.999-12.371 10.999-32.851 0-45.227l-230.21-258.985c-5.689-6.402-12.895-9.387-20.101-9.387zM827.923 415.998h-638.293c-15.55 0-28.444 14.51-28.444 32.002s12.895 32.002 28.444 32.002h638.293c15.55 0 28.444-14.51 28.444-32.002s-12.895-32.002-28.444-32.002z" />
<glyph unicode="&#xe93f;" glyph-name="arrow-square" d="M517.978 285.013c-17.493 0-32 14.507-32 32v83.627c0 125.013 101.547 226.56 226.987 226.56h83.627c17.493 0 32-14.507 32-32s-14.507-32-32-32h-83.627c-89.6 0-162.987-72.96-162.987-162.56v-83.627c0-17.92-14.507-32-32-32zM517.978 192c-17.493 0-32 14.507-32 32v176.213c0 89.6-72.958 162.56-162.558 162.56h-83.628c-17.493 0-32 14.507-32 32s14.507 32 32 32h83.628c125.012 0 226.558-101.547 226.558-226.56v-176.213c0-17.493-14.507-32-32-32zM304.631 486.4c-8.107 0-16.215 2.987-22.615 9.387l-76.799 76.8c-12.373 12.373-12.373 32.853 0 45.226l76.799 76.8c12.373 12.373 32.853 12.373 45.227 0s12.373-32.853 0-45.227l-54.185-54.187 54.185-54.187c12.373-12.373 12.373-32.853 0-45.226-6.4-6.4-14.505-9.387-22.612-9.387zM719.351 486.4c-8.107 0-16.213 2.987-22.613 9.387-12.373 12.373-12.373 32.853 0 45.226l54.187 54.187-54.187 54.187c-12.373 12.373-12.373 32.853 0 45.227s32.853 12.373 45.227 0l76.8-76.8c12.373-12.373 12.373-32.853 0-45.226l-76.8-76.8c-5.973-6.4-14.507-9.387-22.613-9.387zM640-10.667h-256c-231.68 0-330.667 98.987-330.667 330.667v256c0 231.68 98.987 330.667 330.667 330.667h256c231.68 0 330.667-98.987 330.667-330.667v-256c0-231.68-98.987-330.667-330.667-330.667zM384 842.667c-196.693 0-266.667-69.973-266.667-266.667v-256c0-196.693 69.973-266.667 266.667-266.667h256c196.693 0 266.667 69.973 266.667 266.667v256c0 196.693-69.973 266.667-266.667 266.667h-256z" />
<glyph unicode="&#xe940;" glyph-name="arrow-square-down" d="M625.778-10.669h-227.556c-205.938 0-293.926 98.99-293.926 330.669v256c0 231.68 87.988 330.667 293.926 330.667h227.556c205.938 0 293.926-98.987 293.926-330.667v-256c0-231.678-87.988-330.669-293.926-330.669zM398.222 842.667c-174.839 0-237.037-69.973-237.037-266.667v-256c0-196.695 62.199-266.665 237.037-266.665h227.556c174.839 0 237.037 69.97 237.037 266.665v256c0 196.693-62.199 266.667-237.037 266.667h-227.556zM512 323.842c-7.206 0-14.412 2.985-20.101 9.387l-133.877 150.611c-10.999 12.375-10.999 32.855 0 45.227 10.999 12.375 29.203 12.375 40.201 0l113.777-128 113.778 128c10.999 12.375 29.203 12.375 40.201 0 10.999-12.371 10.999-32.851 0-45.227l-133.879-150.611c-5.689-6.402-12.895-9.387-20.101-9.387z" />
<glyph unicode="&#xe941;" glyph-name="arrow-square-left" d="M625.778-10.669h-227.556c-205.938 0-293.926 98.99-293.926 330.669v256c0 231.68 87.988 330.667 293.926 330.667h227.556c205.938 0 293.926-98.987 293.926-330.667v-256c0-231.678-87.988-330.669-293.926-330.669zM398.222 842.667c-174.839 0-237.037-69.973-237.037-266.667v-256c0-196.695 62.199-266.665 237.037-266.665h227.556c174.839 0 237.037 69.97 237.037 266.665v256c0 196.693-62.199 266.667-237.037 266.667h-227.556zM559.787 265.383c-7.206 0-14.412 2.989-20.101 9.387l-133.877 150.615c-10.999 12.371-10.999 32.851 0 45.227l133.877 150.613c10.999 12.373 29.203 12.373 40.201 0s10.999-32.853 0-45.229l-113.778-128 113.778-128c10.999-12.371 10.999-32.851 0-45.227-5.31-6.398-12.516-9.387-20.101-9.387z" />
<glyph unicode="&#xe942;" glyph-name="arrow-square-right" d="M625.778-10.669h-227.556c-205.938 0-293.926 98.99-293.926 330.669v256c0 231.68 87.988 330.667 293.926 330.667h227.556c205.938 0 293.926-98.987 293.926-330.667v-256c0-231.678-87.988-330.669-293.926-330.669zM398.222 842.667c-174.839 0-237.037-69.973-237.037-266.667v-256c0-196.695 62.199-266.665 237.037-266.665h227.556c174.839 0 237.037 69.97 237.037 266.665v256c0 196.693-62.199 266.667-237.037 266.667h-227.556zM464.217 265.383c-7.206 0-14.412 2.989-20.101 9.387-11 12.375-11 32.855 0 45.227l113.778 128-113.778 128c-11 12.375-11 32.855 0 45.229s29.203 12.373 40.201 0l133.879-150.613c10.999-12.375 10.999-32.855 0-45.227l-133.879-150.615c-5.689-6.398-12.895-9.387-20.101-9.387z" />
<glyph unicode="&#xe943;" glyph-name="arrow-square-up" d="M625.778-10.669h-227.556c-205.938 0-293.926 98.99-293.926 330.669v256c0 231.68 87.988 330.667 293.926 330.667h227.556c205.938 0 293.926-98.987 293.926-330.667v-256c0-231.678-87.988-330.669-293.926-330.669zM398.222 842.667c-174.839 0-237.037-69.973-237.037-266.667v-256c0-196.695 62.199-266.665 237.037-266.665h227.556c174.839 0 237.037 69.97 237.037 266.665v256c0 196.693-62.199 266.667-237.037 266.667h-227.556zM645.879 353.705c-7.206 0-14.412 2.989-20.101 9.387l-113.778 128-113.777-128c-10.999-12.371-29.203-12.371-40.201 0-10.999 12.375-10.999 32.855 0 45.227l133.877 150.615c10.999 12.371 29.203 12.371 40.201 0l133.879-150.615c10.999-12.371 10.999-32.851 0-45.227-5.689-6.398-12.895-9.387-20.101-9.387z" />
<glyph unicode="&#xe944;" glyph-name="arrow-swap" d="M384.424 53.329c-8.107 0-16.213 2.987-22.613 9.387l-213.76 213.76c-12.373 12.373-12.373 32.853 0 45.227s32.853 12.373 45.227 0l213.76-213.76c12.373-12.373 12.373-32.853 0-45.227-6.4-5.973-14.507-9.387-22.613-9.387zM384.427 53.333c-17.493 0-32 14.507-32 32v725.333c0 17.493 14.507 32 32 32s32-14.507 32-32v-725.333c0-17.493-14.507-32-32-32zM853.756 564.909c-8.107 0-16.213 2.987-22.613 9.387l-213.76 213.76c-12.373 12.373-12.373 32.853 0 45.227s32.853 12.373 45.227 0l213.76-213.76c12.373-12.373 12.373-32.853 0-45.227-6.4-6.4-14.507-9.387-22.613-9.387zM639.573 53.333c-17.493 0-32 14.507-32 32v725.333c0 17.493 14.507 32 32 32s32-14.507 32-32v-725.333c0-17.493-14.080-32-32-32z" />
<glyph unicode="&#xe945;" glyph-name="arrow-swap-horizontal" d="M660.902 74.244c-8.107 0-16.213 2.987-22.613 9.387-12.373 12.373-12.373 32.853 0 45.227l213.76 213.76c12.373 12.373 32.853 12.373 45.227 0s12.373-32.853 0-45.227l-213.76-213.76c-6.4-5.973-14.507-9.387-22.613-9.387zM874.667 288.427h-725.333c-17.493 0-32 14.507-32 32s14.507 32 32 32h725.333c17.493 0 32-14.507 32-32s-14.507-32-32-32zM149.331 543.576c-8.107 0-16.213 2.987-22.613 9.387-12.373 12.373-12.373 32.853 0 45.227l213.76 213.76c12.373 12.373 32.853 12.373 45.227 0s12.373-32.853 0-45.227l-213.76-213.76c-5.973-5.973-14.507-9.387-22.613-9.387zM874.667 543.573h-725.333c-17.493 0-32 14.507-32 32s14.507 32 32 32h725.333c17.493 0 32-14.507 32-32s-14.507-32-32-32z" />
<glyph unicode="&#xe946;" glyph-name="arrow-up" d="M512-10.667c-253.013 0-458.667 205.653-458.667 458.667s205.653 458.667 458.667 458.667c253.013 0 458.667-205.653 458.667-458.667s-205.653-458.667-458.667-458.667zM512 842.667c-217.6 0-394.667-177.067-394.667-394.667s177.067-394.667 394.667-394.667c217.6 0 394.667 177.067 394.667 394.667s-177.067 394.667-394.667 394.667zM512 266.667c-17.493 0-32 14.507-32 32v256c0 17.493 14.507 32 32 32s32-14.507 32-32v-256c0-17.493-14.507-32-32-32zM639.996 437.338c-8.107 0-16.213 2.987-22.613 9.387l-105.387 105.385-105.385-105.385c-12.373-12.373-32.853-12.373-45.227 0s-12.373 32.853 0 45.227l127.998 127.998c12.373 12.373 32.853 12.373 45.227 0l128-127.998c12.373-12.373 12.373-32.853 0-45.227-6.4-6.4-14.507-9.387-22.613-9.387z" />
<glyph unicode="&#xe947;" glyph-name="arrow-up-1" d="M625.92 160h-227.838c-80.213 0-141.227 29.013-171.52 81.493s-24.747 119.893 15.36 189.44l113.92 197.547c40.107 69.12 95.571 107.52 156.158 107.52s116.053-38.4 156.16-107.947l113.92-197.547c40.107-69.547 45.653-136.96 15.36-189.44-30.293-52.053-91.307-81.067-171.52-81.067zM512 672c-36.693 0-72.533-26.88-100.691-75.947l-113.92-197.547c-28.16-49.067-33.707-93.44-15.36-125.44s59.733-49.493 116.053-49.493h227.838c56.32 0 97.707 17.493 116.053 49.493s12.8 76.373-15.36 125.44l-113.92 197.547c-28.16 49.067-64 75.947-100.693 75.947z" />
<glyph unicode="&#xe948;" glyph-name="arrow-up-2" d="M849.92 285.867c-8.107 0-16.213 2.987-22.613 9.387l-278.187 278.188c-20.48 20.48-53.76 20.48-74.24 0l-278.186-278.188c-12.373-12.373-32.853-12.373-45.227 0s-12.373 32.853 0 45.227l278.186 278.188c45.227 45.227 119.040 45.227 164.693 0l278.187-278.188c12.373-12.373 12.373-32.853 0-45.227-6.4-5.973-14.507-9.387-22.613-9.387z" />
<glyph unicode="&#xe949;" glyph-name="arrow-up-3" d="M742.21 519.68c-7.206 0-14.412 2.989-20.101 9.387l-210.11 236.374-210.11-236.374c-10.999-12.371-29.203-12.371-40.201 0-10.999 12.375-10.999 32.855 0 45.227l230.21 258.987c10.999 12.373 29.203 12.373 40.201 0l230.21-258.987c10.999-12.371 10.999-32.851 0-45.227-5.31-6.398-12.895-9.387-20.101-9.387zM512 53.331c-15.55 0-28.444 14.507-28.444 32.002v718.079c0 17.493 12.895 32 28.444 32s28.444-14.507 28.444-32v-718.079c0-17.495-12.895-32.002-28.444-32.002z" />
<glyph unicode="&#xe94a;" glyph-name="attach-circle" d="M520.525 218.453c-29.867 0-60.16 11.52-82.773 34.133-22.188 22.187-34.561 51.627-34.561 82.773s12.373 61.013 34.561 82.773l60.156 60.16c12.373 12.373 32.853 12.373 45.227 0s12.373-32.853 0-45.227l-60.156-60.16c-10.24-10.24-15.787-23.467-15.787-37.547s5.547-27.733 15.787-37.547c20.907-20.907 54.613-20.907 75.52 0l94.72 94.72c54.187 54.187 54.187 142.080 0 196.267s-142.080 54.187-196.267 0l-103.256-103.253c-21.76-21.76-33.705-50.347-33.705-80.64s11.945-59.307 33.705-80.64c12.373-12.373 12.373-32.853 0-45.227s-32.853-12.373-45.226 0c-33.707 33.707-52.052 78.507-52.052 126.293s18.345 92.587 52.052 126.293l103.255 103.254c78.934 78.933 207.788 78.933 286.721 0s78.933-207.788 0-286.721l-94.72-94.72c-23.040-23.467-52.907-34.987-83.2-34.987zM512-10.667c-253.013 0-458.667 205.653-458.667 458.667s205.653 458.667 458.667 458.667c253.013 0 458.667-205.653 458.667-458.667s-205.653-458.667-458.667-458.667zM512 842.667c-217.6 0-394.667-177.067-394.667-394.667s177.067-394.667 394.667-394.667c217.6 0 394.667 177.067 394.667 394.667s-177.067 394.667-394.667 394.667z" />
<glyph unicode="&#xe94b;" glyph-name="attach-square" d="M520.525 218.453c-29.867 0-60.16 11.52-82.773 34.133-22.188 22.187-34.561 51.627-34.561 82.773s12.373 61.013 34.561 82.773l60.156 60.16c12.373 12.373 32.853 12.373 45.227 0s12.373-32.853 0-45.227l-60.156-60.16c-10.24-10.24-15.787-23.467-15.787-37.547s5.547-27.733 15.787-37.547c20.907-20.907 54.613-20.907 75.52 0l94.72 94.72c54.187 54.187 54.187 142.080 0 196.267s-142.080 54.187-196.267 0l-103.256-103.253c-21.76-21.76-33.705-50.347-33.705-80.64s11.945-59.307 33.705-80.64c12.373-12.373 12.373-32.853 0-45.227s-32.853-12.373-45.226 0c-33.707 33.707-52.052 78.507-52.052 126.293s18.345 92.587 52.052 126.293l103.255 103.254c78.934 78.933 207.788 78.933 286.721 0s78.933-207.788 0-286.721l-94.72-94.72c-23.040-23.467-52.907-34.987-83.2-34.987zM640-10.667h-256c-231.68 0-330.667 98.987-330.667 330.667v256c0 231.68 98.987 330.667 330.667 330.667h256c231.68 0 330.667-98.987 330.667-330.667v-256c0-231.68-98.987-330.667-330.667-330.667zM384 842.667c-196.693 0-266.667-69.973-266.667-266.667v-256c0-196.693 69.973-266.667 266.667-266.667h256c196.693 0 266.667 69.973 266.667 266.667v256c0 196.693-69.973 266.667-266.667 266.667h-256z" />
<glyph unicode="&#xe94c;" glyph-name="audio-square" d="M640.856 7.932h-243.24c-220.134 0-314.187 93.583-314.187 312.605v242.019c0 219.024 94.053 312.605 314.187 312.605h243.24c220.131 0 314.185-93.58 314.185-312.605v-242.019c0-219.023-94.054-312.605-314.185-312.605zM397.616 814.656c-186.891 0-253.377-66.151-253.377-252.1v-242.019c0-185.947 66.486-252.098 253.377-252.098h243.24c186.887 0 253.374 66.15 253.374 252.098v242.019c0 185.949-66.487 252.1-253.374 252.1h-243.24zM422.747 197.515c-64.052 0-116.348 52.034-116.348 115.767 0 63.729 52.296 115.763 116.348 115.763 64.055 0 116.352-52.034 116.352-115.763 0-63.733-52.297-115.767-116.352-115.767zM422.747 368.135c-30.402 0-55.538-24.605-55.538-55.259 0-30.252 24.73-55.259 55.538-55.259 30.405 0 55.541 24.605 55.541 55.259s-25.136 55.259-55.541 55.259zM508.705 283.026c-16.622 0-30.405 13.714-30.405 30.252v298.89c0 16.538 13.784 30.252 30.405 30.252s30.405-13.714 30.405-30.252v-298.89c0-16.94-13.784-30.252-30.405-30.252zM661.947 464.538c-8.514 0-17.434 1.613-26.353 4.44l-94.863 31.462c-35.672 11.696-62.431 48.805-62.431 86.316v25.009c0 25.412 10.54 47.597 29.191 60.908 18.648 13.311 42.971 16.539 67.295 8.471l94.863-31.463c35.675-11.698 62.431-48.805 62.431-86.316v-25.011c0-25.41-10.54-47.594-29.188-60.906-11.758-8.47-25.944-12.91-40.945-12.91zM548.030 625.076c-2.030 0-4.056-0.402-5.27-1.209-2.432-1.614-4.056-6.052-4.056-11.699v-25.007c0-11.297 10.54-25.413 21.080-29.041l94.866-31.462c5.27-1.616 10.134-1.616 12.566 0 2.432 1.613 4.052 6.049 4.052 11.696v25.011c0 11.293-10.54 25.41-21.080 29.038l-94.863 31.465c-2.432 0.806-5.27 1.209-7.296 1.209z" />
<glyph unicode="&#xe94d;" glyph-name="augur-rep" d="M512-10.667c-253.013 0-458.667 205.653-458.667 458.667s205.653 458.667 458.667 458.667c253.013 0 458.667-205.653 458.667-458.667s-205.653-458.667-458.667-458.667zM512 842.667c-217.6 0-394.667-177.067-394.667-394.667s177.067-394.667 394.667-394.667c217.6 0 394.667 177.067 394.667 394.667s-177.067 394.667-394.667 394.667zM640 458.667c-11.52 0-23.040 6.4-28.587 17.493l-97.707 195.839h-2.987l-97.707-195.839c-7.68-15.787-26.88-22.187-43.093-14.507-15.787 8.107-22.187 27.307-14.507 43.093l106.667 213.333c5.547 10.667 16.64 17.493 28.587 17.493h42.667c11.947 0 23.040-6.827 28.587-17.493l106.667-213.333c8.107-15.787 1.707-34.987-14.507-43.093-4.267-1.707-9.387-2.987-14.080-2.987zM512 160c-5.547 0-11.52 1.707-16.64 4.693l-213.333 128c-14.507 8.533-19.627 26.88-12.373 41.813l42.667 85.333c8.107 15.787 27.307 22.187 43.093 14.507 15.787-8.107 22.187-27.307 14.507-43.093l-29.44-58.88 171.52-102.827 171.52 102.827-29.44 58.88c-8.107 15.787-1.707 34.987 14.507 43.093 15.787 7.68 34.987 1.707 43.093-14.507l42.667-85.333c7.68-14.933 2.133-33.28-12.373-41.813l-213.333-128c-5.12-2.987-11.093-4.693-16.64-4.693z" />
<glyph unicode="&#xe94e;" glyph-name="auto-brightness" d="M512.431-10.236c-26.88 0-53.333 8.96-74.24 26.88l-67.412 57.6c-6.827 5.973-23.893 11.947-32.853 11.947h-74.667c-63.147 0-114.347 51.2-114.347 114.347v72.96c0 8.96-5.973 26.027-11.52 32.427l-58.027 68.267c-34.987 41.387-34.987 106.24 0 148.053l58.027 68.265c5.547 6.4 11.52 23.467 11.52 32.427v72.533c0 63.147 51.2 114.347 114.347 114.347h73.813c8.96 0 25.6 6.4 32.853 12.373l67.412 57.6c41.813 35.413 107.093 35.413 148.907 0l67.413-57.6c6.827-5.973 24.32-11.947 33.28-11.947h72.533c63.147 0 114.347-51.2 114.347-114.347v-72.533c0-8.96 6.4-25.6 12.373-32.853l57.6-67.411c35.84-42.24 35.413-107.52 0-148.907l-57.6-67.413c-5.973-7.253-11.947-23.893-11.947-32.853v-72.533c0-63.147-51.2-114.347-114.347-114.347h-72.533c-8.96 0-25.6-6.4-33.28-12.373l-67.413-57.6c-20.907-18.347-47.787-27.307-74.24-27.307zM263.258 745.815c-27.733 0-50.347-22.613-50.347-50.347v-72.533c0-24.32-11.093-55.040-26.88-73.813l-58.027-68.265c-14.507-17.493-14.507-48.213 0-65.28l57.6-67.84c15.36-17.493 26.88-49.493 26.88-73.813v-72.96c0-27.733 22.613-50.347 50.347-50.347h74.24c23.893 0 55.467-11.52 74.24-27.307l67.839-58.027c17.493-14.933 47.787-14.933 65.707 0l67.413 57.6c19.2 16.213 50.347 27.307 74.24 27.307h72.533c27.733 0 50.347 22.613 50.347 50.347v72.533c0 23.893 11.52 55.040 27.307 74.24l58.027 67.84c14.933 17.493 14.933 48.213 0 65.707l-57.6 67.411c-16.213 19.2-27.307 50.347-27.307 74.24v72.96c0 27.733-22.613 50.347-50.347 50.347h-72.533c-24.32 0-55.893 11.52-74.667 27.307l-67.84 58.027c-17.493 14.933-47.787 14.933-65.707 0l-66.986-58.027c-19.2-15.787-50.347-27.307-74.667-27.307h-73.813zM631.898 267.093l-119.893 270.080-119.895-270.080-58.88 26.027 149.335 335.786h58.88l149.333-335.786-58.88-26.027zM586.667 360.102h-149.333c-17.493 0-32 14.507-32 32s14.507 32 32 32h149.333c17.493 0 32-14.507 32-32s-14.507-32-32-32z" />
<glyph unicode="&#xe94f;" glyph-name="autonio-niox" d="M512-10.667c-253.013 0-458.667 205.653-458.667 458.667s205.653 458.667 458.667 458.667c253.013 0 458.667-205.653 458.667-458.667s-205.653-458.667-458.667-458.667zM512 842.667c-217.6 0-394.667-177.067-394.667-394.667s177.067-394.667 394.667-394.667c217.6 0 394.667 177.067 394.667 394.667s-177.067 394.667-394.667 394.667zM621.653 495.356h-219.307c-11.52 0-22.185 6.404-27.732 16.218-5.547 10.24-5.549 22.185 0.424 32.425l109.655 183.040c11.52 19.2 43.52 19.2 55.040 0l109.653-183.040c5.973-9.813 5.973-22.185 0.427-32.425-5.973-10.24-16.64-16.218-28.16-16.218zM458.667 559.358h106.24l-53.333 88.747-52.907-88.747zM475.307 239.356h-219.305c-11.52 0-22.188 6.4-27.735 16.213s-5.546 22.187 0.427 32l109.654 183.040c11.52 19.2 43.519 19.2 55.039 0l109.653-183.040c5.973-9.813 5.973-22.187 0.427-32-5.973-10.24-16.64-16.213-28.16-16.213zM312.321 303.356h106.24l-53.333 88.747-52.907-88.747zM768 239.356h-219.307c-11.52 0-22.187 6.4-27.733 16.213s-5.547 22.187 0.427 32l109.653 183.040c11.52 19.2 43.52 19.2 55.040 0l109.653-183.040c5.973-9.813 5.973-22.187 0.427-32-5.973-10.24-16.64-16.213-28.16-16.213zM605.013 303.356h106.24l-53.333 88.747-52.907-88.747z" />
<glyph unicode="&#xe950;" glyph-name="avalanche-avax" d="M392.108 234.24h-116.906c-18.347 0-35.415 9.813-44.375 25.6s-8.96 35.413 0 51.627l238.933 410.025c8.533 14.933 24.32 24.32 41.387 25.6s33.707-6.827 43.947-20.48l66.987-89.173c26.88-35.84 29.013-85.333 5.12-123.732l-142.507-228.267c-20.053-32-54.613-51.2-92.585-51.2zM296.962 298.24h94.719c15.787 0 30.295 8.107 38.399 21.333l142.507 228.265c9.813 15.787 8.96 36.267-2.133 51.2l-55.467 73.813-218.025-374.612zM748.8 234.24h-163.84c-18.347 0-35.413 9.813-44.8 26.027-8.96 16.213-8.96 35.84 0.427 51.627l81.92 136.533c18.773 31.147 69.12 31.147 87.893 0l81.92-136.533c9.387-15.787 9.813-35.84 0.427-51.627-8.107-15.787-25.6-26.027-43.947-26.027zM607.573 298.24h119.040l-59.733 99.413-59.307-99.413zM512-10.667c-253.013 0-458.667 205.653-458.667 458.667s205.653 458.667 458.667 458.667c253.013 0 458.667-205.653 458.667-458.667s-205.653-458.667-458.667-458.667zM512 842.667c-217.6 0-394.667-177.067-394.667-394.667s177.067-394.667 394.667-394.667c217.6 0 394.667 177.067 394.667 394.667s-177.067 394.667-394.667 394.667z" />
<glyph unicode="&#xe951;" glyph-name="award" d="M512-10.667c-25.6 0-50.773 5.973-71.253 17.493l-201.813 116.48c-83.627 56.32-89.173 66.56-89.173 154.88v211.627c0 88.32 5.547 98.56 87.467 153.6l203.946 117.76c40.533 23.467 101.547 23.467 142.080 0l201.813-116.48c83.627-56.32 89.173-66.56 89.173-154.88v-211.627c0-88.32-5.547-98.56-87.467-153.6l-203.947-117.76c-20.053-11.947-45.653-17.493-70.827-17.493zM512 714.667c-14.507 0-29.013-2.987-39.253-8.96l-201.813-116.48c-57.173-38.827-57.173-38.827-57.173-99.413v-211.627c0-60.587 0-60.587 59.307-100.693l200.106-115.2c20.48-11.947 57.6-11.947 78.080 0l201.813 116.48c57.173 38.827 57.173 38.827 57.173 99.413v211.627c0 60.587 0 60.587-59.307 100.693l-200.107 115.2c-9.813 5.973-24.32 8.96-38.827 8.96zM746.667 602.453c-17.493 0-32 14.507-32 32v112.213c0 67.413-28.587 96-96 96h-213.333c-67.413 0-96-28.587-96-96v-109.227c0-17.493-14.507-32-32-32s-32 14.080-32 32v109.227c0 103.253 56.747 160 160 160h213.333c103.253 0 160-56.747 160-160v-112.213c0-17.493-14.507-32-32-32zM581.547 207.787c-8.96 0-18.347 1.707-27.733 5.547l-41.813 16.213-41.813-16.64c-22.613-8.96-45.654-6.827-62.72 5.547s-26.027 33.707-24.747 58.027l2.56 44.8-28.587 34.56c-15.36 19.2-20.48 41.387-13.653 61.867 6.4 20.053 23.893 35.413 47.36 41.387l43.52 11.093 24.32 37.973c26.027 40.96 81.92 40.96 107.947 0l24.32-37.973 43.52-11.093c23.467-5.973 40.96-21.333 47.36-41.387s1.28-42.667-14.080-61.44l-28.587-34.56 2.56-44.8c1.28-24.32-7.68-45.227-24.747-58.027-10.24-7.253-22.187-11.093-34.987-11.093zM406.186 396.8l28.587-34.56c9.813-11.52 15.36-29.867 14.507-44.8l-2.56-44.8 41.813 16.64c14.080 5.547 32.853 5.547 46.933 0l41.813-16.64-2.56 44.8c-0.853 14.933 4.693 32.853 14.507 44.8l28.587 34.56-43.52 11.093c-14.507 3.84-29.867 14.933-37.973 27.307l-23.893 37.547-24.32-37.547c-8.107-12.8-23.467-23.893-37.973-27.733l-43.947-10.667z" />
<glyph unicode="&#xe952;" glyph-name="back-square" d="M640-10.667h-256c-231.68 0-330.667 98.987-330.667 330.667v256c0 231.68 98.987 330.667 330.667 330.667h256c231.68 0 330.667-98.987 330.667-330.667v-256c0-231.68-98.987-330.667-330.667-330.667zM384 842.667c-196.693 0-266.667-69.973-266.667-266.667v-256c0-196.693 69.973-266.667 266.667-266.667h256c196.693 0 266.667 69.973 266.667 266.667v256c0 196.693-69.973 266.667-266.667 266.667h-256zM593.916 271.787h-209.92c-17.493 0-32 14.507-32 32s14.507 32 32 32h209.92c54.613 0 99.413 44.373 99.413 99.413s-44.373 99.415-99.413 99.415h-288.853c-17.493 0-32 14.507-32 32s14.507 32 32 32h288.853c90.027 0 163.413-73.388 163.413-163.415s-73.387-163.413-163.413-163.413zM365.651 468.476c-8.107 0-16.213 2.987-22.613 9.387l-66.987 66.988c-12.373 12.373-12.373 32.853 0 45.227l66.987 66.987c12.373 12.373 32.853 12.373 45.227 0s12.373-32.853 0-45.227l-44.373-44.373 44.373-44.375c12.373-12.373 12.373-32.853 0-45.227-5.973-5.973-14.080-9.387-22.613-9.387z" />
<glyph unicode="&#xe953;" glyph-name="backward" d="M835.332 194.688c-18.648 0-37.701 4.838-54.729 14.925l-257.024 147.628c-11.758 6.857-21.080 14.925-27.973 23.801-4.458 5.241-6.89 12.101-6.89 18.959v103.259c0 6.857 2.432 13.714 6.89 18.959 7.3 8.872 16.622 16.94 27.973 23.395l257.43 148.032c34.052 19.765 74.997 19.765 109.458 0 34.458-19.765 54.729-54.857 54.729-94.386v-295.262c0-39.526-20.272-74.62-54.729-94.384-17.434-10.086-36.487-14.925-55.135-14.925zM549.12 412.504c1.62-1.211 3.24-2.421 4.864-3.229l256.618-147.226c15.404-8.876 33.649-8.876 48.647 0 15.408 8.872 24.324 24.605 24.324 41.947v295.262c0 17.345-8.916 33.075-24.324 41.949-15.404 8.874-33.243 8.874-48.647 0l-257.024-147.632c-1.62-0.805-3.244-2.015-4.458-3.226v-77.846zM439.662 194.688c-18.648 0-37.705 4.838-54.729 14.925l-257.025 147.628c-34.053 19.767-54.729 54.857-54.729 94.387s20.27 74.624 54.729 94.387l257.025 147.63c34.052 19.765 74.997 19.765 109.458 0 34.458-19.765 54.725-54.857 54.725-94.386v-295.262c0-39.526-20.268-74.62-54.725-94.384-17.028-10.086-36.081-14.925-54.729-14.925zM439.662 647.258c-8.514 0-16.622-2.016-24.324-6.453l-257.025-147.632c-15.405-8.872-24.324-24.605-24.324-41.947 0-17.346 8.919-33.075 24.324-41.951l257.025-147.632c15.404-8.872 33.646-8.872 48.647 0 15.404 8.876 24.324 24.203 24.324 41.951v295.261c0 17.345-8.92 33.076-24.324 41.95-7.702 4.437-15.81 6.453-24.324 6.453z" />
<glyph unicode="&#xe954;" glyph-name="backward-5-seconds" d="M530.425 249.545h-92.837c-16.622 0-30.405 13.714-30.405 30.252 0 16.541 13.784 30.256 30.405 30.256h92.837c17.434 0 31.62 14.113 31.62 31.459s-14.186 31.462-31.62 31.462h-92.837c-9.732 0-19.054 4.842-24.73 12.504-5.676 7.665-7.296 18.154-4.052 27.429l30.808 92.372c4.056 12.504 15.81 20.571 28.785 20.571h124.050c16.622 0 30.405-13.714 30.405-30.252s-13.784-30.252-30.405-30.252h-102.159l-10.54-31.865h50.673c51.079 0 92.431-41.147 92.431-91.97s-41.351-91.966-92.431-91.966zM434.747 721.486c-6.894 0-13.378 2.016-19.054 6.856-12.976 10.487-15.002 29.445-4.864 42.352l80.267 99.629c10.54 12.908 29.594 14.927 42.569 4.842 12.972-10.487 14.998-29.447 4.864-42.355l-80.271-99.629c-5.676-7.664-14.596-11.697-23.512-11.697zM515.013 14.391c-215.269 0-390.808 174.252-390.808 388.838 0 83.496 27.162 163.767 79.054 232.338 10.135 13.311 29.188 16.133 42.567 6.049s16.217-29.042 6.082-42.353c-43.783-58.083-66.892-125.846-66.892-196.034 0-181.109 147.972-328.335 329.998-328.335 182.023 0 329.995 147.226 329.995 328.335s-147.972 328.338-329.995 328.338c-23.515 0-47.433-2.825-73.381-8.875-16.216-3.63-32.834 6.454-36.484 22.588s6.484 32.673 22.704 36.304c30.402 6.857 59.187 10.488 87.161 10.488 215.267 0 390.806-174.253 390.806-388.842 0-214.587-175.539-388.838-390.806-388.838z" />
<glyph unicode="&#xe955;" glyph-name="backward-10-seconds" d="M413.279 259.632c-16.622 0-30.402 13.714-30.402 30.252v136.737l-7.706-8.47c-11.35-12.504-30.404-13.308-42.971-2.417-12.567 11.293-13.378 30.252-2.432 42.756l60.811 67.361c8.514 9.278 21.892 12.504 33.646 8.068 11.758-4.436 19.46-15.733 19.46-28.237v-215.797c0-16.94-13.378-30.252-30.405-30.252zM432.735 721.486c-6.89 0-13.378 2.016-19.054 6.856-12.972 10.487-14.998 29.445-4.864 42.352l80.271 99.629c10.54 12.908 29.594 14.927 42.565 4.842 12.976-10.084 15.002-29.447 4.864-42.355l-80.267-99.629c-5.676-7.664-14.596-11.697-23.515-11.697zM513.002 14.391c-215.267 0-390.806 174.252-390.806 388.838 0 83.496 27.162 163.767 79.054 232.338 10.135 13.311 29.188 16.133 42.567 6.049s16.217-29.042 6.082-42.353c-43.783-58.083-66.892-125.846-66.892-196.034 0-181.109 147.972-328.335 329.996-328.335 182.027 0 329.999 147.226 329.999 328.335s-147.972 328.338-329.999 328.338c-23.512 0-47.429-2.825-73.377-8.875-16.216-3.63-32.837 6.454-36.484 22.588-3.65 16.135 6.484 32.673 22.7 36.304 30.405 6.857 59.187 10.488 87.161 10.488 215.267 0 390.806-174.253 390.806-388.842 0-214.587-175.539-388.838-390.806-388.838zM594.088 259.632c-61.623 0-111.484 49.613-111.484 110.925v54.451c0 61.312 49.861 110.925 111.484 110.925 61.619 0 111.484-49.613 111.484-110.925v-54.451c0-61.312-49.865-110.925-111.484-110.925zM594.088 475.026c-27.973 0-50.677-22.59-50.677-50.421v-54.455c0-27.831 22.704-50.417 50.677-50.417s50.673 22.587 50.673 50.417v54.455c0 27.831-22.7 50.421-50.673 50.421z" />
<glyph unicode="&#xe956;" glyph-name="backward-15-seconds" d="M609.503 249.545h-92.837c-16.622 0-30.405 13.714-30.405 30.252 0 16.541 13.784 30.256 30.405 30.256h92.837c17.43 0 31.623 14.113 31.623 31.459s-14.193 31.462-31.623 31.462h-92.837c-9.728 0-19.054 4.842-24.73 12.504-5.676 7.665-7.296 18.154-4.056 27.429l30.811 92.372c4.056 12.504 15.813 20.571 28.785 20.571h124.050c16.622 0 30.405-13.714 30.405-30.252s-13.784-30.252-30.405-30.252h-102.159l-10.544-31.865h50.677c51.079 0 92.431-41.147 92.431-91.97s-41.757-91.966-92.431-91.966zM411.268 249.545c-16.622 0-30.405 13.714-30.405 30.252v136.737l-7.702-8.872c-11.352-12.504-30.406-13.312-42.973-2.421-12.567 11.293-13.378 30.252-2.432 42.756l60.809 67.361c8.514 9.278 21.892 12.504 33.649 8.068s19.46-15.729 19.46-28.237v-215.797c0-16.538-13.378-29.846-30.405-29.846zM430.724 721.486c-6.89 0-13.378 2.016-19.054 6.856-12.972 10.487-15.002 29.445-4.864 42.352l80.267 99.629c10.54 12.908 29.597 14.927 42.569 4.842s15.002-29.447 4.864-42.355l-80.271-99.629c-5.676-7.664-14.592-11.697-23.512-11.697zM510.991 14.391c-215.269 0-390.808 174.252-390.808 388.838 0 83.496 27.162 163.767 79.054 232.338 10.135 13.311 29.188 16.133 42.566 6.049s16.217-29.042 6.082-42.353c-43.783-58.083-66.892-125.846-66.892-196.034 0-181.109 147.972-328.335 329.998-328.335 182.023 0 329.995 147.226 329.995 328.335s-147.972 328.338-329.995 328.338c-23.515 0-47.433-2.825-73.377-8.875-16.622-3.63-32.841 6.454-36.487 22.588-3.65 16.135 6.484 32.673 22.7 36.304 30.405 6.857 59.191 10.488 87.164 10.488 215.267 0 390.806-174.253 390.806-388.842 0-214.587-175.539-388.838-390.806-388.838z" />
<glyph unicode="&#xe957;" glyph-name="backward-item" d="M804.267 458.667h-115.2c-113.493 0-166.4 52.907-166.4 166.4v115.201c0 113.493 52.907 166.4 166.4 166.4h115.2c113.493 0 166.4-52.906 166.4-166.4v-115.201c0-113.493-52.907-166.4-166.4-166.4zM689.067 842.667c-78.507 0-102.4-23.893-102.4-102.4v-115.201c0-78.507 23.893-102.4 102.4-102.4h115.2c78.507 0 102.4 23.893 102.4 102.4v115.201c0 78.507-23.893 102.4-102.4 102.4h-115.2zM334.933-10.667h-115.2c-113.493 0-166.4 52.907-166.4 166.4v115.2c0 113.493 52.907 166.4 166.4 166.4h115.2c113.493 0 166.4-52.907 166.4-166.4v-115.2c0-113.493-52.907-166.4-166.4-166.4zM219.733 373.333c-78.507 0-102.4-23.893-102.4-102.4v-115.2c0-78.507 23.893-102.4 102.4-102.4h115.2c78.507 0 102.4 23.893 102.4 102.4v115.2c0 78.507-23.893 102.4-102.4 102.4h-115.2zM581.124 186.453h-111.787c-17.493 0-32 14.507-32 32v52.48c0 78.507-23.893 102.4-102.4 102.4h-52.48c-17.493 0-32 14.507-32 32v111.787c0 133.12 59.306 192.427 192.426 192.427h111.787c17.493 0 32-14.507 32-32v-52.48c0-78.507 23.893-102.4 102.4-102.4h52.48c17.493 0 32-14.507 32-32v-111.787c0-133.12-59.307-192.427-192.427-192.427zM501.338 250.453h79.787c97.28 0 128.427 31.147 128.427 128.427v79.787h-20.48c-113.493 0-166.4 52.907-166.4 166.4v20.48h-79.787c-97.28 0-128.426-31.147-128.426-128.427v-79.787h20.48c113.493 0 166.4-52.907 166.4-166.4v-20.48z" />
<glyph unicode="&#xe958;" glyph-name="bag" d="M221.44 687.787c-8.107 0-16.64 3.413-22.614 9.387-12.373 12.373-12.373 32.853 0 45.227l154.88 154.88c12.373 12.373 32.854 12.373 45.227 0s12.373-32.853 0-45.227l-154.88-154.88c-6.4-5.973-14.506-9.387-22.613-9.387zM802.56 687.787c-8.107 0-16.213 2.987-22.613 9.387l-154.88 154.88c-12.373 12.373-12.373 32.853 0 45.227s32.853 12.373 45.227 0l154.88-154.88c12.373-12.373 12.373-32.853 0-45.227-5.973-5.973-14.507-9.387-22.613-9.387zM862.293 507.733c-2.987 0-5.973 0-8.96 0h-682.667c-29.867-0.427-64-0.427-88.747 24.32-19.627 19.2-28.587 49.067-28.587 93.013 0 117.333 85.76 117.333 126.72 117.333h663.893c40.96 0 126.72 0 126.72-117.333 0-44.373-8.96-73.813-28.587-93.013-22.187-22.187-52.053-24.32-79.787-24.32zM180.053 571.733h673.707c19.2-0.427 37.12-0.427 43.093 5.547 2.987 2.987 9.387 13.227 9.387 47.787 0 48.213-11.947 53.333-62.72 53.333h-663.467c-50.773 0-62.72-5.12-62.72-53.333 0-34.56 6.827-44.8 9.387-47.787 5.973-5.547 24.32-5.547 43.093-5.547h10.24zM416.427 179.2c-17.493 0-32 14.507-32 32v151.467c0 17.493 14.507 32 32 32s32-14.507 32-32v-151.467c0-17.92-14.507-32-32-32zM612.693 179.2c-17.493 0-32 14.507-32 32v151.467c0 17.493 14.507 32 32 32s32-14.507 32-32v-151.467c0-17.92-14.507-32-32-32zM635.307-10.667h-257.28c-152.747 0-186.88 90.88-200.107 169.813l-60.16 369.067c-2.987 17.493 8.96 33.707 26.453 36.693s33.707-8.96 36.693-26.453l60.16-368.64c12.373-75.52 37.973-116.48 136.96-116.48h257.28c109.653 0 122.027 38.4 136.107 112.64l71.68 373.333c3.413 17.493 20.053 29.013 37.547 25.173 17.493-3.413 28.587-20.053 25.173-37.547l-71.68-373.333c-16.64-86.613-44.373-164.267-198.827-164.267z" />
<glyph unicode="&#xe959;" glyph-name="bag-2" d="M704 591.787c-17.493 0-32 14.507-32 32v58.88c0 44.8-19.2 88.32-52.48 118.613-33.707 30.72-77.227 44.8-123.307 40.533-76.8-7.253-144.213-85.76-144.213-167.68v-41.387c0-17.493-14.507-32-32-32s-32 14.507-32 32v41.813c0 114.773 92.587 220.587 202.24 231.253 64 5.973 125.44-14.080 172.373-57.173 46.507-42.24 73.387-102.827 73.387-165.973v-58.88c0-17.493-14.507-32-32-32zM640-10.667h-256c-197.12 0-233.813 91.733-243.2 180.907l-32 255.573c-4.693 46.080-6.4 112.213 38.4 161.707 38.4 42.667 101.973 63.147 194.133 63.147h341.333c92.587 0 156.16-20.907 194.133-63.147 44.373-49.493 43.093-115.627 38.4-160.853l-32-256.427c-9.387-89.173-46.080-180.907-243.2-180.907zM341.333 586.667c-72.107 0-121.6-14.080-146.773-42.24-20.907-23.040-27.733-58.453-22.187-111.36l32-255.573c7.253-68.267 26.027-124.587 179.627-124.587h256c153.6 0 172.373 55.893 179.627 123.733l32 256.427c5.547 52.053-1.28 87.467-22.187 110.933-25.173 28.587-74.667 42.667-146.773 42.667h-341.333zM657.92 398.933c-23.893 0-43.093 19.2-43.093 42.667s19.2 42.667 42.667 42.667c23.467 0 42.667-19.2 42.667-42.667s-18.773-42.667-42.24-42.667zM359.253 398.933c-23.893 0-43.093 19.2-43.093 42.667s19.2 42.667 42.667 42.667c23.467 0 42.667-19.2 42.667-42.667s-18.773-42.667-42.24-42.667z" />
<glyph unicode="&#xe95a;" glyph-name="bag-cross" d="M571.307 187.307c-8.107 0-16.213 2.987-22.613 9.387l-117.76 117.76c-12.373 12.373-12.373 32.853 0 45.227s32.853 12.373 45.227 0l117.76-117.76c12.373-12.373 12.373-32.853 0-45.227-5.973-6.4-14.080-9.387-22.613-9.387zM452.693 186.027c-8.107 0-16.213 2.987-22.613 9.387-12.373 12.373-12.373 32.853 0 45.227l117.76 117.76c12.373 12.373 32.853 12.373 45.227 0s12.373-32.853 0-45.227l-117.76-117.76c-6.4-6.4-14.507-9.387-22.613-9.387zM221.44 687.787c-8.107 0-16.64 3.413-22.614 9.387-12.373 12.373-12.373 32.853 0 45.227l154.88 154.88c12.373 12.373 32.854 12.373 45.227 0s12.373-32.853 0-45.227l-154.88-154.88c-6.4-5.973-14.506-9.387-22.613-9.387zM802.56 687.787c-8.107 0-16.213 2.987-22.613 9.387l-154.88 154.88c-12.373 12.373-12.373 32.853 0 45.227s32.853 12.373 45.227 0l154.88-154.88c12.373-12.373 12.373-32.853 0-45.227-5.973-5.973-14.507-9.387-22.613-9.387zM862.293 507.733c-2.987 0-5.973 0-8.96 0h-682.667c-29.867-0.427-64-0.427-88.747 24.32-19.627 19.2-28.587 49.067-28.587 93.013 0 117.333 85.76 117.333 126.72 117.333h663.893c40.96 0 126.72 0 126.72-117.333 0-44.373-8.96-73.813-28.587-93.013-22.187-22.187-52.053-24.32-79.787-24.32zM180.053 571.733h673.707c19.2-0.427 37.12-0.427 43.093 5.547 2.987 2.987 9.387 13.227 9.387 47.787 0 48.213-11.947 53.333-62.72 53.333h-663.467c-50.773 0-62.72-5.12-62.72-53.333 0-34.56 6.827-44.8 9.387-47.787 5.973-5.547 24.32-5.547 43.093-5.547h10.24zM635.307-10.667h-257.28c-152.747 0-186.88 90.88-200.107 169.813l-60.16 369.067c-2.987 17.493 8.96 33.707 26.453 36.693s33.707-8.96 36.693-26.453l60.16-368.64c12.373-75.52 37.973-116.48 136.96-116.48h257.28c109.653 0 122.027 38.4 136.107 112.64l71.68 373.333c3.413 17.493 20.053 29.013 37.547 25.173 17.493-3.413 28.587-20.053 25.173-37.547l-71.68-373.333c-16.64-86.613-44.373-164.267-198.827-164.267z" />
<glyph unicode="&#xe95b;" glyph-name="bag-cross-1" d="M512 117.333c-111.787 0-202.667 90.88-202.667 202.667s90.88 202.667 202.667 202.667c111.787 0 202.667-90.88 202.667-202.667s-90.88-202.667-202.667-202.667zM512 458.667c-76.373 0-138.667-62.293-138.667-138.667s62.293-138.667 138.667-138.667c76.373 0 138.667 62.293 138.667 138.667s-62.293 138.667-138.667 138.667zM557.653 240.64c-8.107 0-16.213 2.987-22.613 9.387l-90.027 90.027c-12.373 12.373-12.373 32.853 0 45.227s32.853 12.373 45.227 0l90.027-90.027c12.373-12.373 12.373-32.853 0-45.227-6.4-6.4-14.507-9.387-22.613-9.387zM466.347 239.36c-8.107 0-16.213 2.987-22.613 9.387-12.373 12.373-12.373 32.853 0 45.227l90.027 90.027c12.373 12.373 32.853 12.373 45.227 0s12.373-32.853 0-45.227l-90.027-90.027c-6.4-5.973-14.507-9.387-22.613-9.387zM640-10.667h-256c-197.12 0-233.813 91.733-243.2 180.907l-32 255.573c-4.693 46.080-6.4 112.213 38.4 161.707 38.4 42.667 101.973 63.147 194.133 63.147h341.333c92.587 0 156.16-20.907 194.133-63.147 44.373-49.493 43.093-115.627 38.4-160.853l-32-256.427c-9.387-89.173-46.080-180.907-243.2-180.907zM341.333 586.667c-72.107 0-121.6-14.080-146.773-42.24-20.907-23.040-27.733-58.453-22.187-111.36l32-255.573c7.253-68.267 26.027-124.587 179.627-124.587h256c153.6 0 172.373 55.893 179.627 123.733l32 256.427c5.547 52.053-1.28 87.467-22.187 110.933-25.173 28.587-74.667 42.667-146.773 42.667h-341.333zM704 591.787c-17.493 0-32 14.507-32 32v58.88c0 44.8-19.2 88.32-52.48 118.613-33.707 30.72-77.653 44.8-123.307 40.533-76.8-7.253-144.213-85.76-144.213-167.68v-41.387c0-17.493-14.507-32-32-32s-32 14.507-32 32v41.813c0 114.773 92.587 220.587 202.24 231.253 64 5.973 125.44-14.080 172.373-57.173 46.507-42.24 73.387-102.827 73.387-165.973v-58.88c0-17.493-14.507-32-32-32z" />
<glyph unicode="&#xe95c;" glyph-name="bag-happy" d="M512 170.667c-99.84 0-181.333 81.493-181.333 181.333 0 17.493 14.507 32 32 32s32-14.507 32-32c0-64.853 52.48-117.333 117.333-117.333s117.333 52.48 117.333 117.333c0 17.493 14.507 32 32 32s32-14.507 32-32c0-99.84-81.493-181.333-181.333-181.333zM221.44 687.787c-8.107 0-16.64 3.413-22.614 9.387-12.373 12.373-12.373 32.853 0 45.227l154.88 154.88c12.373 12.373 32.854 12.373 45.227 0s12.373-32.853 0-45.227l-154.88-154.88c-6.4-5.973-14.506-9.387-22.613-9.387zM802.56 687.787c-8.107 0-16.213 2.987-22.613 9.387l-154.88 154.88c-12.373 12.373-12.373 32.853 0 45.227s32.853 12.373 45.227 0l154.88-154.88c12.373-12.373 12.373-32.853 0-45.227-5.973-5.973-14.507-9.387-22.613-9.387zM862.293 507.733c-2.987 0-5.973 0-8.96 0h-682.667c-29.867-0.427-64-0.427-88.747 24.32-19.627 19.2-28.587 49.067-28.587 93.013 0 117.333 85.76 117.333 126.72 117.333h663.893c40.96 0 126.72 0 126.72-117.333 0-44.373-8.96-73.813-28.587-93.013-22.187-22.187-52.053-24.32-79.787-24.32zM180.053 571.733h673.707c19.2-0.427 37.12-0.427 43.093 5.547 2.987 2.987 9.387 13.227 9.387 47.787 0 48.213-11.947 53.333-62.72 53.333h-663.467c-50.773 0-62.72-5.12-62.72-53.333 0-34.56 6.827-44.8 9.387-47.787 5.973-5.547 24.32-5.547 43.093-5.547h10.24zM635.307-10.667h-257.28c-152.747 0-186.88 90.88-200.107 169.813l-60.16 369.067c-2.987 17.493 8.96 33.707 26.453 36.693 17.067 2.987 33.707-8.96 36.693-26.453l60.16-368.64c12.373-75.52 37.973-116.48 136.96-116.48h257.28c109.653 0 122.027 38.4 136.107 112.64l71.68 373.333c3.413 17.493 20.053 29.013 37.547 25.173 17.493-3.413 28.587-20.053 25.173-37.547l-71.68-373.333c-16.64-86.613-44.373-164.267-198.827-164.267z" />
<glyph unicode="&#xe95d;" glyph-name="bag-tick" d="M474.453 181.333c-8.107 0-16.213 2.987-22.613 9.387l-64 64c-12.373 12.373-12.373 32.853 0 45.227s32.853 12.373 45.227 0l42.24-42.24 116.053 107.093c12.8 11.947 33.28 11.093 45.227-1.707s11.093-33.28-1.707-45.227l-138.667-128c-5.973-5.547-13.653-8.533-21.76-8.533zM221.44 687.787c-8.107 0-16.64 3.413-22.614 9.387-12.373 12.373-12.373 32.853 0 45.227l154.88 154.88c12.373 12.373 32.854 12.373 45.227 0s12.373-32.853 0-45.227l-154.88-154.88c-6.4-5.973-14.506-9.387-22.613-9.387zM802.56 687.787c-8.107 0-16.213 2.987-22.613 9.387l-154.88 154.88c-12.373 12.373-12.373 32.853 0 45.227s32.853 12.373 45.227 0l154.88-154.88c12.373-12.373 12.373-32.853 0-45.227-5.973-5.973-14.507-9.387-22.613-9.387zM862.293 507.733c-2.987 0-5.973 0-8.96 0h-682.667c-29.867-0.427-64-0.427-88.747 24.32-19.627 19.2-28.587 49.067-28.587 93.013 0 117.333 85.76 117.333 126.72 117.333h663.893c40.96 0 126.72 0 126.72-117.333 0-44.373-8.96-73.813-28.587-93.013-22.187-22.187-52.053-24.32-79.787-24.32zM180.053 571.733h673.707c19.2-0.427 37.12-0.427 43.093 5.547 2.987 2.987 9.387 13.227 9.387 47.787 0 48.213-11.947 53.333-62.72 53.333h-663.467c-50.773 0-62.72-5.12-62.72-53.333 0-34.56 6.827-44.8 9.387-47.787 5.973-5.547 24.32-5.547 43.093-5.547h10.24zM635.307-10.667h-257.28c-152.747 0-186.88 90.88-200.107 169.813l-60.16 369.067c-2.987 17.493 8.96 33.707 26.453 36.693 17.067 2.987 33.707-8.96 36.693-26.453l60.16-368.64c12.373-75.52 37.973-116.48 136.96-116.48h257.28c109.653 0 122.027 38.4 136.107 112.64l71.68 373.333c3.413 17.493 20.053 29.013 37.547 25.173 17.493-3.413 28.587-20.053 25.173-37.547l-71.68-373.333c-16.64-86.613-44.373-164.267-198.827-164.267z" />
</font>
</defs>
</svg>
